<svg version="1.1" id="Layer_1" xmlns="http://www.w3.org/2000/svg" xmlns:xlink="http://www.w3.org/1999/xlink" x="0px" y="0px"
	 width="100%" viewBox="0 0 490 420" enable-background="new 0 0 490 420" xml:space="preserve">
<path fill="#1B1B1B" opacity="1.000000" stroke="none" 
	d="
M55.728447,1.279020 
	C80.354225,1.000000 104.708458,1.000000 129.531342,1.000000 
	C134.898071,4.249461 133.695374,9.622808 134.156143,14.172956 
	C134.523911,17.804556 134.704926,21.437941 135.549911,25.007307 
	C138.114944,35.842335 139.526642,46.903587 141.882935,57.770294 
	C143.286987,64.245483 144.502213,70.818199 146.971024,77.028770 
	C148.332748,80.454323 149.322784,83.956314 149.542557,87.655922 
	C149.932373,94.217987 153.595322,99.545700 156.258179,105.240677 
	C157.105209,107.052185 158.415222,108.775040 158.273376,110.806488 
	C157.894913,116.226448 159.780746,120.992538 162.409470,125.467499 
	C165.582413,130.868851 166.790726,136.912949 168.673294,142.746109 
	C170.319305,147.846313 172.489807,152.683090 176.531036,156.911530 
	C177.521255,158.032761 177.693604,159.009186 177.394165,160.401550 
	C177.226013,161.324829 177.062576,161.910950 177.065826,162.797836 
	C177.294159,163.870239 177.734360,164.584534 177.955490,165.752518 
	C179.732803,169.024673 183.398880,171.289398 180.922150,175.829041 
	C178.269012,178.151001 175.243515,176.993713 172.291016,177.858887 
	C171.818680,178.104553 171.641739,178.221466 171.231903,178.555298 
	C167.588242,188.444275 169.080582,197.713470 173.846420,206.445465 
	C179.405334,216.630554 188.332535,223.039215 198.889053,227.370667 
	C201.030518,228.249313 203.306427,228.809097 205.602325,230.317688 
	C208.055298,234.507675 209.331970,238.393997 204.776535,242.123016 
	C202.549149,244.404953 200.478195,243.142075 198.491318,242.544662 
	C196.205368,241.857300 193.938095,241.731018 193.014847,244.283829 
	C190.611893,250.928055 187.807632,257.487671 187.565582,264.962708 
	C187.900833,265.405884 188.056107,265.573639 188.488434,265.964264 
	C190.973389,267.728363 193.517792,267.453552 195.991852,267.497986 
	C206.284500,267.682983 216.584167,267.157288 227.260986,267.898987 
	C230.212036,270.480347 232.563095,273.059692 234.186478,276.351379 
	C237.067093,282.192352 240.839432,287.438171 245.989731,291.549713 
	C247.442184,292.709229 248.611313,293.967651 249.338837,295.748871 
	C252.108734,302.530212 256.679108,307.410431 264.012573,309.334045 
	C268.176422,310.426270 271.507446,312.861023 273.980255,316.348511 
	C277.526581,321.350037 275.364105,326.466187 268.995789,327.453308 
	C267.044647,327.398804 266.461121,326.094482 265.618378,325.108459 
	C256.067627,313.933929 237.266281,314.568970 228.449112,326.387115 
	C227.744354,327.331757 227.189026,328.340179 225.470627,328.462158 
	C222.316620,328.515381 220.830093,327.188232 220.240250,324.451416 
	C220.015411,323.408142 219.693146,321.934570 217.737381,321.627869 
	C212.421326,317.153534 210.346481,317.203949 205.241760,321.820770 
	C204.381134,322.599121 203.598053,323.460205 202.751434,324.251740 
	C199.760483,327.048096 198.176987,326.838379 196.709198,322.887115 
	C195.418442,319.412384 193.685059,319.435455 190.793488,321.403564 
	C187.470047,322.658966 185.044037,321.584595 183.442581,319.206299 
	C180.326508,314.578735 175.369247,311.247864 173.830719,305.504608 
	C173.529526,304.380249 172.752808,303.410645 171.860703,302.650726 
	C164.259689,296.175751 159.540634,287.516724 153.983856,279.455872 
	C146.413803,268.474487 139.799240,256.994019 133.755951,245.111435 
	C130.989990,239.672852 126.803116,234.964264 125.350784,228.817627 
	C125.203033,228.192307 124.748672,227.596375 124.244377,227.171860 
	C116.354767,220.530304 114.179092,210.965836 111.311943,201.783295 
	C110.309021,198.571274 108.778633,195.725403 107.096077,192.814911 
	C101.946091,183.906494 98.237488,174.288971 94.091026,164.884964 
	C88.975388,153.282913 86.256325,140.884674 81.747559,129.058136 
	C77.496857,117.908524 73.401352,106.382469 71.340515,94.745331 
	C69.016571,81.622467 63.836140,69.088341 63.121700,55.815613 
	C62.721428,48.379395 61.003304,41.162243 60.306435,33.809486 
	C59.447693,24.748745 57.874741,15.415887 55.144554,6.516712 
	C54.591576,4.714244 53.621971,3.112691 55.728447,1.279020 
z"/>
<path fill="#171717" opacity="1.000000" stroke="none" 
	d="
M55.531342,1.000000 
	C59.072906,8.789412 60.249439,16.974342 61.159222,25.229292 
	C61.298138,26.489725 61.789787,27.923964 62.602737,28.854658 
	C64.493362,31.019108 64.538574,33.058830 63.633530,35.729538 
	C62.420860,39.308029 62.478619,42.965622 65.544258,45.924358 
	C66.414276,46.764042 66.911659,47.885983 66.610634,49.111374 
	C64.092857,59.360661 68.476379,68.608231 70.783051,78.156792 
	C71.484909,81.062195 72.874939,83.986053 72.780884,86.863243 
	C72.531876,94.480148 76.193436,101.023346 77.934135,108.068245 
	C81.240631,121.450241 86.583176,134.210129 90.612022,147.393906 
	C93.840530,157.958664 98.738724,168.042679 102.895844,178.300797 
	C106.432373,187.027542 112.479256,194.391083 114.769966,203.815399 
	C116.717857,211.829330 118.982323,220.326996 126.715492,225.600906 
	C129.396790,227.429504 128.301682,231.334183 129.886322,233.805908 
	C133.923431,240.103088 137.769485,246.515915 140.896500,253.291641 
	C146.429413,265.280548 155.396515,275.093079 161.614716,286.628510 
	C163.453003,290.038727 165.874237,293.087982 168.763809,295.535309 
	C175.451080,301.199097 178.557861,309.391693 183.847565,316.017975 
	C185.216339,317.732605 186.594772,319.380585 189.199280,319.947266 
	C192.369263,320.686890 192.333038,323.074066 192.352921,325.183197 
	C192.489227,339.653564 192.775269,354.125793 192.109146,369.060089 
	C191.740524,371.296753 190.131470,371.772980 188.604675,372.889008 
	C186.298325,373.759125 184.216278,374.348999 182.768204,372.390717 
	C180.248840,368.983734 176.772125,366.786163 173.163651,364.157745 
	C171.849609,360.662689 169.718246,358.335144 166.589020,356.378845 
	C165.092804,353.825867 163.072601,351.790436 164.439667,348.454498 
	C165.180801,345.440430 167.462418,345.753143 169.356125,345.522583 
	C172.646454,345.121918 173.932114,343.393768 173.617126,340.099274 
	C172.743118,330.958099 169.047668,323.544830 160.758698,318.403076 
	C160.439011,317.628052 160.424927,317.161987 160.500900,316.682861 
	C160.544067,316.410645 160.502838,316.246979 160.497833,316.206543 
	C160.477356,316.040283 160.439438,316.194305 160.138977,316.949768 
	C153.346466,318.063812 146.544449,316.622009 139.869232,319.496674 
	C138.343323,320.123199 137.064438,320.379608 135.538712,320.937622 
	C135.011108,321.078491 134.793915,321.108490 134.257843,321.102051 
	C131.885574,320.579437 131.625488,322.170074 130.914764,323.729919 
	C127.727814,325.234619 125.312569,324.411865 123.318069,322.007568 
	C121.937378,320.343201 120.428459,318.878967 117.759308,318.620453 
	C116.394493,318.448456 115.540604,317.881348 114.220078,317.448303 
	C110.811760,313.170776 108.380196,308.737183 107.353615,303.296204 
	C108.564148,298.788605 107.286774,295.349762 104.229340,292.583588 
	C99.691673,288.478180 96.487747,283.511200 94.227913,277.875153 
	C93.041527,274.916260 91.398781,272.195404 89.446480,269.702179 
	C86.846878,266.382416 85.770554,262.083221 83.352600,258.914551 
	C77.542793,251.300934 76.630882,241.267792 70.285553,234.062408 
	C70.065002,233.811951 69.759048,233.566818 69.693825,233.266113 
	C67.985184,225.389587 63.477055,218.780441 60.277874,211.597717 
	C58.004097,206.492691 55.307316,201.515594 53.245239,196.281143 
	C49.646660,187.146378 45.323395,178.285233 43.266720,168.590302 
	C42.314377,164.101044 38.999939,160.733810 37.361141,156.519501 
	C35.900154,152.762451 34.350418,149.126541 34.477150,144.999634 
	C34.518192,143.663269 34.277145,142.323532 33.733246,141.093246 
	C28.274473,128.745621 26.451725,115.244591 21.766693,102.730507 
	C18.961849,95.238548 17.742018,87.366356 15.609706,79.833282 
	C13.147367,71.134277 11.603934,61.709694 10.747269,52.500797 
	C10.038724,44.884159 10.492521,37.209892 7.101680,30.032719 
	C6.077370,27.864628 6.977903,25.414028 6.850651,23.094416 
	C6.539996,17.431633 6.019080,11.806201 4.756010,6.257744 
	C4.396124,4.676825 3.994500,2.937898 5.732083,1.281606 
	C22.354227,1.000000 38.708454,1.000000 55.531342,1.000000 
z"/>
<path fill="#292929" opacity="1.000000" stroke="none" 
	d="
M287.736511,1.266590 
	C303.020905,1.000000 318.041779,1.000000 333.531342,1.000000 
	C339.152679,4.829638 337.699615,10.989620 339.367096,16.056835 
	C342.720947,26.248520 344.044373,37.063709 348.952484,46.784229 
	C350.449768,49.749630 351.275909,53.022579 352.167267,56.232773 
	C355.061676,66.657066 358.667114,76.672523 364.302307,86.106995 
	C367.733551,91.851631 369.777130,98.521690 373.283112,104.381622 
	C373.789001,105.227173 373.921204,106.333847 374.567505,107.076012 
	C383.493195,117.325310 388.318573,130.308685 397.748352,140.417419 
	C404.465759,147.618484 409.875885,156.206848 416.096039,164.012009 
	C421.624329,170.949005 427.916382,177.002686 434.645172,182.777008 
	C440.437225,187.747452 446.213318,192.726486 452.308136,197.302811 
	C459.879517,202.987778 467.372284,208.753998 474.446625,215.053040 
	C475.191681,215.716415 476.089508,216.397568 477.044373,216.495895 
	C483.529938,217.163757 487.283997,221.426178 490.739441,226.738190 
	C491.000000,244.354233 491.000000,261.708466 491.000000,279.531342 
	C489.699066,281.553772 488.232971,281.584534 486.582275,280.554474 
	C477.890686,275.130890 467.622375,272.300751 460.332397,264.557098 
	C459.424255,263.592407 458.239288,262.736938 456.954193,262.488373 
	C448.746246,260.900879 443.577423,254.750046 437.791138,249.644119 
	C434.119171,246.403915 429.864502,244.147583 425.851685,241.509521 
	C415.641449,234.797226 407.163208,226.189484 398.437531,217.775803 
	C392.451843,212.004135 387.355499,205.325882 380.993927,200.035736 
	C371.504089,192.144135 365.567474,181.529709 358.221191,171.999878 
	C356.093689,169.240036 354.202057,166.310226 351.806641,163.740662 
	C347.700531,159.336014 344.103210,154.570557 341.954620,148.852371 
	C341.486725,147.607086 341.062500,146.212769 340.147095,145.311172 
	C332.401611,137.682556 328.388672,127.738518 323.468964,118.393738 
	C316.906586,105.928772 310.051178,93.560890 307.167603,79.520973 
	C306.147491,74.554115 302.416779,70.815163 300.643188,66.124382 
	C299.510651,63.129154 298.285706,60.290257 298.698547,57.000198 
	C298.931000,55.147701 298.709412,53.255093 297.730835,51.673786 
	C293.523651,44.875523 293.578400,36.644787 290.201904,29.573486 
	C289.696259,28.514503 289.656952,27.262125 289.991119,26.135677 
	C291.121460,22.325542 289.805450,19.121284 288.246216,15.650365 
	C286.250427,11.207605 284.521149,6.403000 287.736511,1.266590 
z"/>
<path fill="#141414" opacity="1.000000" stroke="none" 
	d="
M5.500038,1.000000 
	C8.337899,9.709940 9.062004,18.570841 9.652522,27.570419 
	C10.017599,33.134239 13.420891,38.663578 12.985419,44.485420 
	C12.138696,55.805279 18.045963,66.160973 17.178518,77.421539 
	C17.060701,78.950958 17.984888,80.277618 18.901520,81.489624 
	C20.782946,83.977333 21.803354,86.644638 21.226065,89.872307 
	C21.000933,91.131035 21.164875,92.578720 21.558374,93.810371 
	C25.787762,107.048393 28.707731,120.800735 33.582157,133.658340 
	C36.574989,141.552750 35.689621,150.407593 40.790680,157.521698 
	C46.927628,166.080505 47.443192,176.885254 51.914333,186.184891 
	C57.186417,197.150436 60.856792,208.884964 67.879448,219.009949 
	C69.026878,220.664246 69.757210,222.556061 69.928589,224.585709 
	C70.307686,229.075287 71.856903,232.941055 75.347618,235.987152 
	C77.029816,237.455078 77.693924,239.574951 78.047935,241.764130 
	C78.752403,246.120560 79.881668,250.258362 83.895653,252.884415 
	C84.161713,253.058487 84.466850,253.358765 84.520729,253.644302 
	C86.335762,263.263580 94.047073,269.835083 97.438744,278.691498 
	C99.197685,283.284485 101.813133,287.584045 106.250740,290.469849 
	C110.324585,293.119110 111.644951,299.943542 108.710144,303.243958 
	C107.362312,304.460205 106.229576,304.344452 104.754410,303.380035 
	C104.093018,302.874237 103.731232,302.572937 103.123306,302.036774 
	C102.067924,301.072052 101.252914,300.350769 99.997894,299.702637 
	C99.344872,299.398193 98.973885,299.226593 98.327682,298.932434 
	C97.867592,298.728363 97.684929,298.642120 97.223160,298.433777 
	C96.553970,298.143250 96.160194,297.983978 95.439529,297.722168 
	C83.345100,293.796234 72.245369,294.922424 61.842419,301.920685 
	C59.069550,303.786011 57.740509,307.211243 54.091518,308.425232 
	C51.285847,307.811584 50.663826,305.765411 50.031555,304.037720 
	C50.437119,306.481293 53.318573,308.370087 52.592201,311.816101 
	C52.176868,312.588440 51.813301,312.925476 51.007584,313.286682 
	C44.890446,313.611542 42.251583,309.351257 39.465454,305.454224 
	C30.449579,292.843536 23.955936,278.849579 17.135197,265.007538 
	C13.176214,256.973175 9.412307,248.827652 5.113650,240.966095 
	C3.637525,238.266495 2.631379,235.731567 3.242043,232.592560 
	C3.670006,230.392685 2.815342,228.342896 1.245965,226.267563 
	C1.000000,152.327499 1.030790,78.654938 0.902807,4.982652 
	C0.896839,1.547698 1.603562,0.255225 5.500038,1.000000 
z"/>
<path fill="#262626" opacity="1.000000" stroke="none" 
	d="
M287.531342,1.000000 
	C288.881775,6.868973 288.650360,12.990929 292.381195,18.184847 
	C293.200195,19.325031 293.769684,21.085667 293.580780,22.438620 
	C292.108124,32.984097 296.757874,41.977100 300.544159,51.210072 
	C301.042450,52.425213 301.826477,53.839653 301.597046,54.985298 
	C300.131256,62.303429 304.202850,67.731895 307.539154,73.439407 
	C308.042450,74.300491 308.746033,75.144806 308.925903,76.079826 
	C312.311676,93.678642 321.675507,108.670456 329.571930,124.345314 
	C332.586151,130.328751 335.208710,136.321289 340.283569,140.931030 
	C342.532043,142.973389 343.598419,145.912674 344.663544,148.711075 
	C345.744934,151.552063 347.228851,154.134705 349.111084,156.481415 
	C354.924255,163.729172 361.603699,170.442581 366.374023,178.316330 
	C370.302429,184.800415 374.838989,190.414459 380.126190,195.668793 
	C390.471802,205.950134 400.508636,216.548431 411.024475,226.649918 
	C417.134033,232.518677 423.898529,237.764526 431.293427,241.965897 
	C435.130371,244.145844 438.157104,247.162537 441.564301,249.789444 
	C446.743073,253.782181 451.109070,259.223145 458.290680,260.056366 
	C459.196014,260.161407 460.207092,260.830566 460.846069,261.532501 
	C468.945801,270.430328 480.713409,273.375641 490.668335,279.893677 
	C491.000000,290.687561 491.000000,301.375122 491.000000,312.531342 
	C488.012543,316.717041 484.546143,314.444000 482.043701,312.925659 
	C475.317841,308.844727 467.885681,306.317413 461.007050,302.610657 
	C458.047424,301.015778 455.220428,299.391052 452.894257,296.935242 
	C451.386871,295.343842 449.581055,294.125000 447.429260,293.571838 
	C440.756165,291.856476 435.493927,287.727875 430.528046,283.306458 
	C427.141937,280.291565 423.824921,277.112030 419.608978,275.555237 
	C410.786285,272.297394 405.311646,264.864563 398.435699,259.223602 
	C385.353271,248.490921 373.171753,236.728912 361.559906,224.439087 
	C350.203094,212.419174 338.493988,200.628922 330.026215,186.200363 
	C329.261963,184.898209 328.483154,183.597870 326.385132,183.373291 
	C324.034790,181.439240 323.844238,178.447098 321.651917,176.311523 
	C321.520172,173.327347 319.653381,172.292877 317.575317,171.576035 
	C315.046783,170.703796 313.624268,169.276199 314.478333,166.077133 
	C314.190155,164.536423 316.337402,163.543015 314.535645,162.293411 
	C313.903870,162.442581 313.551422,162.581085 312.944702,162.904587 
	C312.509674,163.183655 312.337372,163.299820 311.905945,163.592316 
	C311.277985,163.989395 310.900574,164.194336 310.241638,164.579315 
	C309.470764,165.258087 309.031952,165.808929 308.051422,166.250534 
	C306.933411,166.427063 306.187866,166.401031 305.249512,165.679276 
	C303.870239,163.310043 301.677002,162.097473 300.409912,159.644760 
	C299.288422,155.168365 303.018158,153.027512 304.448914,149.522629 
	C304.980865,148.638290 305.308319,148.043457 305.880859,147.225800 
	C306.176239,146.785400 306.291901,146.608566 306.569946,146.160049 
	C306.983459,145.542053 307.254333,145.211792 307.739319,144.635971 
	C309.245361,140.057220 306.951111,139.287170 303.023865,139.733032 
	C297.342712,133.476410 289.552704,135.099472 282.425171,133.353668 
	C278.836823,129.831146 280.515900,125.891273 281.146423,121.785187 
	C288.065552,119.139183 288.149628,119.084557 285.899139,112.348129 
	C282.884369,103.324097 282.953522,94.104301 284.126373,84.849747 
	C284.874908,78.943405 286.045227,73.091835 287.496216,66.942215 
	C287.719513,65.675072 287.867584,64.756660 288.093811,63.483826 
	C289.765717,51.851246 289.467346,51.600475 278.290253,51.446537 
	C273.377747,51.378883 268.379944,52.295979 263.269897,50.279579 
	C260.036469,40.854118 257.235138,31.743385 256.038269,22.117088 
	C255.376129,16.791735 253.385132,11.593937 252.647339,6.180241 
	C252.419342,4.507100 251.842087,2.934430 253.696915,1.309546 
	C265.020905,1.000000 276.041779,1.000000 287.531342,1.000000 
z"/>
<path fill="#2C2C2C" opacity="1.000000" stroke="none" 
	d="
M491.000000,226.531342 
	C489.870453,226.761414 488.193359,226.916473 487.695435,226.223816 
	C482.240784,218.635895 472.540558,217.711838 465.796295,211.614899 
	C450.341461,197.643433 432.476471,186.381714 418.304474,170.903198 
	C412.038818,164.059937 406.163422,156.739349 401.008209,149.035004 
	C396.360107,142.088562 389.797058,136.648544 385.849426,129.326965 
	C381.692932,121.618019 375.852386,114.967087 371.815552,107.356079 
	C365.473633,95.398926 358.929077,83.470787 354.065765,70.752983 
	C352.516327,66.701057 350.599182,62.734127 350.062317,58.439575 
	C349.192169,51.479538 344.279175,46.130119 342.932922,39.419640 
	C341.787720,33.711342 340.023407,28.244827 338.087524,22.728722 
	C335.756256,16.086000 335.304504,8.783664 334.019531,1.383439 
	C348.687561,1.000000 363.375122,1.000000 378.531342,1.000000 
	C382.944061,3.966260 385.556030,8.193469 385.814880,12.782329 
	C386.299866,21.379253 390.736908,28.584106 392.915131,36.555332 
	C397.496490,53.321049 406.241089,68.362503 414.459015,83.454811 
	C418.423157,90.735001 423.263367,97.702255 427.688416,104.822723 
	C431.753845,111.364532 437.354401,117.050652 442.345306,123.045677 
	C453.407654,136.333694 465.521484,148.686722 478.937286,159.620316 
	C483.302979,163.178314 487.530914,166.645630 490.741577,171.739120 
	C491.000000,190.020889 491.000000,208.041794 491.000000,226.531342 
z"/>
<path fill="#21201F" opacity="1.000000" stroke="none" 
	d="
M176.377304,158.245697 
	C173.679474,157.889008 172.393616,156.321106 171.125870,154.418076 
	C167.838943,149.484100 165.791336,143.961655 164.614380,138.326004 
	C163.391647,132.471085 160.094223,127.712418 157.873642,122.407219 
	C157.104950,120.570732 155.638367,118.776711 155.868179,116.855812 
	C156.771469,109.305664 152.145691,103.732033 149.410049,97.472847 
	C148.748672,95.959595 148.042694,94.404678 147.757004,92.797844 
	C144.885300,76.647110 139.040146,61.177708 136.491577,44.991493 
	C134.229630,30.625792 130.785889,16.420826 130.050919,1.409712 
	C155.020889,1.000000 180.041794,1.000000 205.531342,1.000000 
	C209.331909,4.535982 211.073074,9.288616 210.975128,13.582440 
	C210.729538,24.349298 213.921478,34.455551 215.453781,44.863850 
	C215.648041,46.183380 215.914230,47.457397 215.327545,49.144180 
	C214.272232,51.323879 212.489319,51.173161 210.881210,51.431885 
	C205.349564,52.321846 204.496414,53.435036 205.434753,59.098465 
	C206.736282,66.953957 208.439850,74.744461 209.604507,82.618484 
	C211.119278,92.859604 211.413391,103.062859 207.897720,113.088486 
	C205.773514,119.146133 206.813416,120.362045 213.393265,120.504539 
	C218.035843,120.605072 222.687836,120.274323 227.722260,120.897575 
	C231.086548,123.807404 236.895660,124.786667 234.512253,131.376251 
	C234.380753,131.989532 234.339859,132.232361 234.223816,133.185394 
	C233.723755,135.878601 234.767746,137.393509 235.692154,138.985291 
	C238.609741,144.009171 241.964157,148.768372 244.877991,154.207031 
	C245.389481,155.084427 245.683426,155.703659 245.641418,156.355743 
	C245.404922,160.026642 245.282059,163.242233 250.791763,162.258530 
	C252.816284,161.897064 254.573105,164.647827 257.387390,164.385956 
	C258.467255,164.282532 259.186615,164.127106 260.233582,164.513519 
	C261.236755,165.238373 261.297791,166.091248 261.623352,166.826035 
	C262.404358,168.588837 260.115265,171.864517 264.565674,171.995178 
	C265.910278,172.034653 265.826416,174.702255 264.501404,176.568634 
	C261.299377,179.147522 257.906677,178.397217 254.644073,178.211105 
	C234.523026,177.063370 214.404922,176.996887 194.289047,178.269928 
	C191.125626,178.470139 187.968018,178.555298 184.810608,178.345566 
	C182.998886,178.225189 181.085251,178.164124 180.077682,175.645950 
	C179.598846,172.049103 177.864731,169.548172 176.114685,166.694122 
	C175.960541,165.720032 175.963501,164.839600 176.535324,164.592499 
	C181.187851,162.581894 179.545486,160.546204 176.377304,158.245697 
z"/>
<path fill="#0F0F0F" opacity="1.000000" stroke="none" 
	d="
M1.000000,226.468658 
	C4.849396,227.644821 7.787798,229.739899 5.651863,234.652435 
	C5.156865,235.790894 5.809118,236.892288 6.346249,237.951050 
	C13.008511,251.083252 20.010489,264.059723 26.174286,277.422577 
	C30.506159,286.813843 36.080570,295.372192 41.570480,304.026428 
	C43.623829,307.263306 46.166420,310.122681 50.077454,311.977051 
	C52.932884,314.394257 51.110840,316.810760 50.485268,319.040131 
	C47.283867,330.449158 47.571732,341.738281 51.592525,352.855865 
	C54.669598,361.364044 60.131866,367.806854 69.083443,371.396729 
	C69.936981,371.710449 70.427811,371.889160 71.296539,372.196259 
	C72.186646,372.481476 72.699066,372.637848 73.594620,372.932312 
	C76.765877,377.051208 80.633202,378.653839 85.410088,378.275513 
	C87.169037,378.136169 88.650116,378.943848 89.772125,380.105438 
	C94.242439,384.733490 99.357613,388.717194 102.254707,394.820221 
	C105.490311,401.636414 111.007233,406.834625 116.407883,411.949524 
	C119.299988,414.688599 120.381866,417.164246 117.279831,420.717651 
	C79.719238,421.000000 42.438053,420.920105 5.158364,421.120056 
	C1.311658,421.140686 0.916327,420.030914 0.921963,416.669556 
	C1.028008,353.425629 1.000000,290.181427 1.000000,226.468658 
z"/>
<path fill="#252424" opacity="1.000000" stroke="none" 
	d="
M326.734619,182.080566 
	C329.689514,182.202423 331.492798,183.616196 332.716675,185.728668 
	C337.734955,194.390472 343.897369,202.378159 350.844849,209.337753 
	C362.744049,221.257721 373.433258,234.328751 386.694244,245.050690 
	C393.911957,250.886505 401.096954,257.182617 407.604462,263.970123 
	C411.031647,267.544739 414.719452,270.201233 419.260773,272.148438 
	C425.753784,274.932495 430.578796,280.212616 436.027863,284.540894 
	C439.849426,287.576447 443.877075,290.121033 448.758026,291.119171 
	C449.856506,291.343811 451.156921,291.794525 451.852264,292.589233 
	C458.621979,300.326355 468.397675,302.812073 477.063141,307.237976 
	C481.334351,309.419525 485.240082,312.420624 490.618225,312.953796 
	C491.000000,323.687561 491.000000,334.375122 491.000000,345.531342 
	C489.633057,347.765991 487.899902,347.603668 486.072327,346.933502 
	C477.590515,343.823395 468.688263,341.667023 461.262878,336.144836 
	C457.390900,333.265259 452.351532,332.806244 448.527924,329.640228 
	C446.333679,327.823334 444.304504,326.155579 443.111938,323.149902 
	C441.376190,317.209564 436.991302,319.741913 433.204437,319.517517 
	C429.210907,318.623566 426.006500,316.985229 423.269623,314.405823 
	C419.340942,310.703217 414.483215,308.363892 409.694489,306.191132 
	C405.796265,304.422394 402.555145,302.000000 399.496704,299.221832 
	C396.911560,296.873596 394.343170,294.688171 391.210175,292.958740 
	C387.505554,290.913757 385.626526,286.715149 381.811157,284.327026 
	C369.661072,276.722076 359.075531,267.236694 349.239838,256.735596 
	C343.031555,250.107361 336.669922,243.514420 329.771729,237.532623 
	C327.961334,235.962738 326.901062,233.912704 325.615601,231.977325 
	C324.057343,229.631302 323.011566,226.739273 320.641876,225.171875 
	C316.855560,222.667450 315.735779,219.469193 316.717224,214.901611 
	C316.536560,214.297150 316.501617,214.044373 316.519348,213.414825 
	C316.843689,212.078949 317.311401,211.216919 318.078064,210.115570 
	C318.546875,209.451752 318.811676,209.073624 319.251801,208.403839 
	C319.659027,207.720123 319.880768,207.322037 320.251007,206.611511 
	C322.181732,202.449936 323.625488,198.485489 324.496338,193.947098 
	C324.642365,193.092407 324.723602,192.598282 324.843811,191.716049 
	C325.688202,188.322647 323.409821,184.830338 326.734619,182.080566 
z"/>
<path fill="#2F2F2F" opacity="1.000000" stroke="none" 
	d="
M491.000000,171.531342 
	C485.390167,171.425400 483.245148,166.060837 479.387512,163.140381 
	C470.450684,156.374680 462.036377,148.752823 454.269989,140.653641 
	C446.477448,132.527130 439.776550,123.359535 432.503662,114.727028 
	C427.485962,108.771248 421.697113,103.338104 420.164764,95.189438 
	C420.107849,94.886719 419.875214,94.561356 419.631622,94.357574 
	C413.563568,89.280746 410.298859,82.246178 407.060516,75.384621 
	C400.491821,61.466557 393.453247,47.818363 388.725037,32.977211 
	C385.418671,22.598915 383.963531,11.623717 379.046570,1.371743 
	C390.687561,1.000000 402.375122,1.000000 414.531342,1.000000 
	C415.362030,1.342300 415.871887,1.590031 416.111145,1.986421 
	C421.019989,10.119978 428.313354,17.156498 428.120270,27.658781 
	C428.047424,31.621717 429.414581,35.169361 431.148071,38.586124 
	C435.420380,47.007164 439.577148,55.485821 443.836151,63.912712 
	C449.362610,74.847412 455.346283,85.793037 463.448883,94.775520 
	C470.915344,103.052826 477.719421,112.178490 486.677368,119.060295 
	C489.283752,121.062592 488.797638,124.247368 490.756256,126.738159 
	C491.000000,141.687561 491.000000,156.375122 491.000000,171.531342 
z"/>
<path fill="#313131" opacity="1.000000" stroke="none" 
	d="
M491.000000,126.531342 
	C486.962585,124.637924 484.395508,120.670654 480.893982,117.674278 
	C473.938873,111.722527 468.526855,104.164413 462.256866,97.478088 
	C456.666992,91.517059 452.294312,84.077408 448.067017,76.747795 
	C444.514709,70.588554 441.471130,64.209686 438.102661,57.983307 
	C433.224792,48.966801 426.501801,40.022861 425.631805,30.166641 
	C424.987091,22.863039 422.230011,17.693966 419.211853,11.891653 
	C417.536438,8.670749 416.499207,5.117882 415.087158,1.357318 
	C439.114227,1.000000 463.229065,1.084883 487.341919,0.901658 
	C490.673035,0.876346 491.070557,1.913150 491.063751,4.826523 
	C490.969543,45.238403 491.000000,85.650581 491.000000,126.531342 
z"/>
<path fill="#131313" opacity="1.000000" stroke="none" 
	d="
M117.468658,421.000000 
	C117.307327,417.393646 115.205208,415.560516 112.886131,412.912811 
	C107.978928,407.310242 103.065361,401.563263 99.101547,395.049896 
	C94.633354,387.707703 89.935211,380.034302 79.534004,379.698425 
	C76.812042,379.610535 74.223190,377.968079 72.161552,375.422180 
	C72.712364,372.511627 74.761169,373.356995 76.490112,373.425476 
	C81.815620,373.636505 87.035385,373.456055 92.223495,371.762207 
	C100.255722,369.139801 106.112495,364.266663 109.862358,356.699005 
	C110.869492,354.666443 111.311829,352.232544 113.741203,350.709534 
	C118.031586,350.988190 120.770004,354.841003 125.361366,354.405579 
	C127.344635,354.541809 127.948929,355.767365 128.439865,357.017853 
	C131.703400,365.330841 137.463501,370.862915 146.210007,373.125580 
	C146.681091,373.247467 147.048141,373.655365 147.620453,374.314789 
	C148.082123,375.235046 147.994461,376.167969 148.459778,376.469269 
	C155.502655,381.029999 159.709244,388.466064 166.052475,393.716644 
	C166.943481,394.454132 168.112869,394.994354 168.576691,396.045380 
	C171.901596,403.579773 178.663193,408.178162 183.866257,414.103180 
	C185.487976,415.949951 187.616913,417.658173 185.253784,420.732147 
	C162.645767,421.000000 140.291550,421.000000 117.468658,421.000000 
z"/>
<path fill="#1B1B1B" opacity="1.000000" stroke="none" 
	d="
M385.245605,420.749847 
	C366.312439,421.000000 347.624878,421.000000 328.468658,421.000000 
	C316.260223,415.183563 306.235413,406.827087 295.848785,399.042450 
	C291.775696,395.989746 288.379242,392.043488 284.725891,388.454407 
	C281.342346,385.130402 277.672028,382.476959 272.897339,381.555969 
	C266.674622,380.355682 266.462219,379.880585 269.006226,373.333191 
	C270.570831,371.623749 270.871368,370.063934 269.573334,368.557129 
	C267.668823,366.346313 267.537872,363.728058 267.527924,361.041412 
	C267.494598,352.054260 267.474152,343.066895 267.543854,334.080078 
	C267.559113,332.113159 267.308807,330.056915 268.856506,327.995422 
	C272.322815,326.469208 275.654755,325.779602 278.504333,323.523499 
	C281.142578,321.434784 283.643677,322.813721 283.973145,326.427521 
	C284.164825,328.529999 284.487976,330.071655 287.061829,330.830627 
	C288.801208,333.151917 288.438110,335.542053 288.460449,337.830109 
	C288.541626,346.132843 288.479248,354.436493 288.499908,362.739777 
	C288.503204,364.068542 288.472595,365.409576 288.815552,366.702240 
	C289.069214,367.658356 289.375549,368.793121 290.619934,368.739258 
	C291.832672,368.686798 292.118561,367.575653 292.288177,366.589203 
	C292.823090,363.477844 292.157776,360.267914 293.224121,356.840149 
	C296.691986,354.168945 299.379059,355.117676 302.227386,357.601166 
	C307.678894,362.354431 313.365692,366.838287 319.230957,371.693878 
	C319.737518,372.066650 319.916412,372.241791 320.249817,372.752441 
	C320.407837,375.113403 320.802124,375.978119 323.405792,376.459473 
	C327.714630,377.256165 331.290833,380.238403 334.833679,382.892456 
	C339.726685,386.557953 344.603058,390.250702 349.917908,393.304596 
	C356.668365,397.183441 362.535858,402.345551 369.102570,406.489685 
	C373.872009,409.499634 378.927399,412.047363 383.461761,415.440521 
	C385.201630,416.742554 387.415649,417.765991 385.245605,420.749847 
z"/>
<path fill="#171717" opacity="1.000000" stroke="none" 
	d="
M278.250153,420.742645 
	C262.979095,421.000000 247.958206,421.000000 232.468658,421.000000 
	C227.670700,416.943970 222.654358,413.607697 219.140381,408.695679 
	C218.557068,407.880249 217.863205,407.080505 216.979675,406.640717 
	C210.143158,403.237457 204.922089,397.699158 200.031158,392.232574 
	C195.686157,387.376251 192.259796,381.604828 187.774109,376.735229 
	C187.321320,376.243683 187.606369,375.446930 187.772064,374.418274 
	C188.145020,373.580658 188.491669,373.196625 189.298828,372.744324 
	C195.422577,370.466949 196.310898,369.213470 196.500046,363.130310 
	C196.660187,357.980743 196.131653,352.812164 197.037292,347.307007 
	C200.024155,344.116913 202.729614,344.567963 205.223907,347.430725 
	C207.516235,350.061707 210.032303,352.475800 212.425751,354.992737 
	C215.216705,357.927643 218.313782,359.774933 222.553589,360.615936 
	C225.171982,362.457062 225.422531,365.466553 227.410980,367.802185 
	C227.933350,368.436798 228.249924,368.781219 228.840897,369.346100 
	C230.388168,370.628693 231.597748,371.759430 232.893738,373.301544 
	C234.479568,378.259399 238.309616,381.061035 241.484879,384.261108 
	C248.472641,391.303406 255.858398,397.842194 263.922302,403.762329 
	C268.749634,407.306335 272.735748,412.153198 277.926422,415.498993 
	C279.837708,416.730927 280.457062,418.576599 278.250153,420.742645 
z"/>
<path fill="#242424" opacity="1.000000" stroke="none" 
	d="
M214.189911,49.303627 
	C209.279037,33.523281 208.958801,17.465092 206.000763,1.427824 
	C221.687561,1.000000 237.375122,1.000000 253.531342,1.000000 
	C257.782898,14.880421 258.983429,29.338058 263.409027,43.081253 
	C263.906464,44.625961 263.812073,46.361263 263.994873,48.420166 
	C263.072540,51.502804 260.678650,51.335022 258.618378,51.369221 
	C245.546646,51.586212 232.472733,51.567825 219.400360,51.384792 
	C217.613007,51.359760 215.721786,51.344437 214.189911,49.303627 
z"/>
<path fill="#161615" opacity="1.000000" stroke="none" 
	d="
M188.806335,374.745209 
	C193.215485,378.914093 196.711914,383.298981 200.126038,388.029968 
	C204.504913,394.097748 210.685425,399.042145 216.933502,403.743744 
	C222.752655,408.122620 229.532440,412.420441 231.908417,420.653931 
	C216.645767,421.000000 201.291550,421.000000 185.468658,421.000000 
	C184.541641,417.333435 181.396942,415.548370 179.276077,413.119904 
	C174.852783,408.055145 170.618790,402.640869 166.090942,397.929413 
	C160.430511,392.039490 155.908539,384.993164 149.322571,379.978882 
	C148.005203,378.975861 146.659012,377.972046 146.240036,375.835632 
	C148.100403,372.930695 151.116165,372.887543 153.778015,372.691437 
	C160.256775,372.214142 165.425171,369.535461 169.596497,364.663971 
	C170.533524,363.569672 171.419327,362.222168 173.572357,362.796875 
	C177.727753,362.804779 180.272583,364.721161 182.197998,367.846924 
	C183.213867,369.496094 184.351654,371.134796 186.688477,371.891266 
	C187.980896,372.555481 188.450760,373.430511 188.806335,374.745209 
z"/>
<path fill="#1A1919" opacity="1.000000" stroke="none" 
	d="
M278.468658,421.000000 
	C277.583130,419.941711 277.468567,418.331360 276.702026,417.911621 
	C269.940125,414.208954 265.400940,407.872711 259.255737,403.460022 
	C248.853256,395.990326 239.978500,386.900146 231.702621,377.192444 
	C231.117569,376.506165 231.080597,375.694000 231.759964,374.659149 
	C232.888474,372.642059 234.680618,372.500305 236.257614,372.640167 
	C244.398849,373.362457 251.524918,370.852112 258.449097,366.168091 
	C259.926300,366.384125 260.932892,366.792450 262.260132,367.420441 
	C263.862549,371.175964 267.825836,371.796478 269.963196,374.799194 
	C269.278687,377.732269 270.305969,378.856445 272.920349,379.013428 
	C277.820007,379.307648 281.765442,381.688843 285.101074,385.112854 
	C296.019623,396.320587 308.078766,406.055450 321.523376,414.115387 
	C323.985474,415.591370 326.540283,417.435608 327.891113,420.678040 
	C311.645782,421.000000 295.291534,421.000000 278.468658,421.000000 
z"/>
<path fill="#202020" opacity="1.000000" stroke="none" 
	d="
M490.723236,380.724121 
	C491.000000,391.687561 491.000000,402.375122 491.000000,413.531342 
	C488.005402,417.097290 484.751190,414.914001 482.311066,413.656494 
	C472.201630,408.446594 460.645355,406.302155 451.502197,399.074738 
	C450.328339,398.146851 448.796967,397.838593 447.306458,397.599701 
	C446.487061,397.468353 445.508698,397.623993 444.869202,397.185425 
	C438.221741,392.626312 430.638977,389.924194 423.577759,386.217468 
	C420.423401,384.561646 417.907593,381.715698 414.064758,381.225525 
	C412.117126,380.977081 410.750366,379.794067 409.887848,377.588440 
	C409.637238,376.027100 409.414398,374.861725 408.203125,373.742554 
	C406.868683,372.142212 406.907471,370.805450 407.843811,369.380280 
	C411.205292,364.263947 414.114349,358.849976 417.798004,353.949036 
	C420.433075,350.443085 422.588074,350.458496 425.228241,353.970306 
	C428.112915,357.807434 430.628632,361.905426 433.322571,365.877930 
	C434.251434,367.247620 435.135010,368.671448 436.444336,369.716187 
	C437.633575,370.665161 439.110474,371.657806 440.491364,370.615662 
	C442.160950,369.355621 440.685364,367.951935 440.053833,366.696136 
	C438.841522,364.285583 436.361572,362.085724 439.169556,358.851135 
	C441.141357,357.559021 442.512909,358.483215 444.086090,359.129425 
	C454.053680,363.223633 463.507568,368.493317 473.596283,372.260925 
	C479.508179,374.468689 485.602264,376.116394 490.723236,380.724121 
z"/>
<path fill="#232323" opacity="1.000000" stroke="none" 
	d="
M491.000000,380.531342 
	C481.806183,378.960205 473.163574,375.203552 464.665039,371.421265 
	C456.403198,367.744324 448.254425,363.803802 439.430206,360.462372 
	C437.296204,361.057068 436.129425,360.024414 435.186005,358.872314 
	C431.926453,354.891754 429.250275,350.506592 426.581635,346.120087 
	C425.666016,344.615082 426.149811,343.203796 426.921173,341.902802 
	C430.895844,335.199371 435.650879,329.025421 440.096649,322.641571 
	C440.827423,321.592255 441.846436,321.167114 443.458679,321.729004 
	C448.269348,326.088165 452.639648,330.398895 459.106415,331.372894 
	C459.860291,331.486450 460.615295,332.078979 461.220062,332.617554 
	C465.125397,336.095428 469.602203,337.945129 474.653137,339.609924 
	C479.869995,341.329498 484.936981,344.035858 490.640991,345.903961 
	C491.000000,357.354218 491.000000,368.708466 491.000000,380.531342 
z"/>
<path fill="#1F1F1F" opacity="1.000000" stroke="none" 
	d="
M411.723938,375.733765 
	C412.224426,376.444733 412.411072,377.253540 412.678741,377.281311 
	C420.819427,378.125244 424.899017,387.565979 433.607910,387.162079 
	C433.930023,387.147156 434.391327,387.168152 434.565887,387.367096 
	C439.928070,393.477936 448.159790,394.180267 454.650543,398.101715 
	C458.195892,400.243683 461.377594,402.478882 465.700684,403.385345 
	C470.267120,404.342834 474.262207,407.441162 478.736115,409.225861 
	C482.570343,410.755402 486.407623,412.345978 490.642700,413.904541 
	C491.000000,421.000000 491.000000,421.000000 484.214935,421.000000 
	C479.455811,421.000000 474.696686,421.000000 469.468781,421.000000 
	C468.381866,420.456726 467.781677,419.726349 466.947418,419.700928 
	C451.311951,419.225342 438.558411,410.732361 424.985352,404.576538 
	C415.031281,400.062103 406.196228,393.483795 396.370667,388.696747 
	C390.502319,385.837708 386.722778,380.156891 381.019989,377.014435 
	C380.326080,376.632080 380.354248,375.553009 380.547882,374.342651 
	C380.701111,372.369232 382.245758,371.909241 383.263428,370.602020 
	C383.648804,369.904083 383.827393,369.473572 384.065704,368.654083 
	C385.170258,360.128204 383.773041,351.897583 385.150726,343.347717 
	C387.994934,340.462219 390.583984,340.710083 393.719238,342.515808 
	C399.616180,345.912140 404.830750,349.646423 405.978455,357.376831 
	C407.444733,359.568207 406.302032,361.039917 405.586578,362.742706 
	C404.316589,365.765442 401.169128,367.760834 401.353424,371.556732 
	C402.379913,371.972015 403.052063,371.916962 404.062500,371.817383 
	C405.371002,371.755066 406.311615,371.890533 407.490356,372.542725 
	C408.723267,374.063538 410.329803,374.430664 411.723938,375.733765 
z"/>
<path fill="#1F1D1C" opacity="1.000000" stroke="none" 
	d="
M385.468658,421.000000 
	C381.921326,416.148743 376.687103,414.166870 372.105988,411.316650 
	C367.096161,408.199707 361.791077,405.573273 357.414062,401.453156 
	C352.080963,396.433105 345.017334,393.972900 339.194489,389.532806 
	C335.947876,387.057190 333.154144,383.881256 329.309265,382.101868 
	C325.918335,380.532562 323.059052,377.716278 318.752258,378.771942 
	C317.311493,379.125122 315.484711,378.274628 315.479523,376.479797 
	C315.472778,374.169189 317.380829,376.494904 318.095306,375.713837 
	C318.519501,375.250122 318.785065,374.641327 319.190857,373.815247 
	C326.651703,371.362946 326.698364,365.210144 327.195129,358.883362 
	C329.469635,356.881989 331.499054,356.844147 333.566040,358.695129 
	C338.979919,363.543335 345.816162,366.478241 351.017944,371.610687 
	C352.195801,372.772858 353.469177,372.155426 355.109192,371.987549 
	C356.249390,371.876923 357.008270,371.940765 358.104034,372.260986 
	C360.377411,377.717834 364.341736,380.736694 369.144714,383.518555 
	C377.290436,388.236511 384.621002,394.270691 392.749756,399.111908 
	C395.897827,400.986786 398.955292,403.048218 402.375458,404.249756 
	C409.660522,406.809082 415.621979,411.832092 422.697388,414.784760 
	C424.772308,415.650726 427.468903,417.149719 425.251892,420.728455 
	C411.979095,421.000000 398.958221,421.000000 385.468658,421.000000 
z"/>
<path fill="#1F1E1E" opacity="1.000000" stroke="none" 
	d="
M425.468658,421.000000 
	C424.489044,419.124939 423.384552,417.655426 421.597961,416.945465 
	C413.123077,413.577667 405.393951,408.677917 397.314728,404.562561 
	C389.337952,400.499420 381.156311,396.173553 374.441711,389.906769 
	C371.580994,387.236786 367.944244,385.973602 364.725342,383.973236 
	C361.346375,381.873383 356.966095,380.261230 357.965515,374.500244 
	C361.424500,367.650909 359.956879,360.403717 361.286865,353.144531 
	C368.001617,348.309662 370.357697,348.410309 377.591064,353.619171 
	C380.002167,356.043579 379.470703,358.818542 379.429718,361.384949 
	C379.362457,365.596100 379.916473,369.602661 381.978119,373.755737 
	C389.587372,380.005890 396.635956,386.363495 405.463715,390.724030 
	C412.637451,394.267578 419.503143,398.759186 426.643341,402.507446 
	C435.719513,407.272003 445.152039,411.367188 454.749969,415.089142 
	C459.405151,416.894318 464.617981,417.270477 468.881592,420.694580 
	C454.645782,421.000000 440.291534,421.000000 425.468658,421.000000 
z"/>
<path fill="#FC5722" opacity="1.000000" stroke="none" 
	d="
M327.011841,181.643280 
	C327.234253,185.266251 327.334808,188.531219 327.695343,192.101898 
	C327.905640,192.805405 327.758331,193.162994 327.351959,193.728134 
	C326.245514,198.522949 324.879669,202.931061 322.724243,207.470139 
	C322.833466,208.444244 322.816132,209.036819 322.124329,209.763077 
	C321.574402,209.975403 321.309479,210.081161 320.972748,210.456726 
	C320.537506,211.720993 320.114441,212.746857 319.003235,213.691086 
	C318.689178,213.807724 318.769501,213.805740 318.768188,213.765594 
	C316.712219,220.972549 310.860809,224.642944 304.980896,228.232407 
	C302.008270,230.047073 298.765778,231.379578 295.334534,233.131439 
	C294.297974,233.842422 293.325470,232.968887 292.281982,233.701721 
	C287.771912,234.099167 284.185059,236.122131 280.007751,237.624008 
	C274.489441,238.368515 269.688446,240.512939 264.157043,241.295807 
	C262.657928,241.661880 261.596954,241.095016 260.084778,241.352081 
	C258.573364,241.402039 257.465240,240.947433 255.967957,241.671753 
	C244.317490,241.162888 233.004974,241.917648 221.844925,239.587006 
	C215.360046,238.232712 208.969391,236.934570 203.338791,232.311157 
	C195.214722,228.488861 187.494476,224.996933 180.986832,219.132599 
	C168.619263,207.987656 164.382294,194.463562 167.887253,178.335098 
	C168.027725,177.688736 168.083847,177.024017 168.178589,175.979645 
	C168.182922,175.267120 168.187927,174.942810 168.593445,174.894730 
	C172.365677,175.241333 175.737427,175.311707 179.556793,175.272186 
	C188.967117,175.271439 197.929703,175.462097 206.892487,175.472763 
	C225.674408,175.495117 244.456421,175.422714 263.624390,175.281616 
	C266.513947,173.040939 269.563843,173.603149 272.453735,173.538269 
	C275.557220,173.468582 278.656891,173.406403 282.218384,173.074661 
	C294.407745,171.980484 306.146484,172.602173 317.877625,172.666779 
	C319.520294,172.675842 321.194855,172.980469 322.669800,174.792358 
	C326.922485,175.532883 325.777954,179.123901 327.011841,181.643280 
z"/>
<path fill="#FC5722" opacity="1.000000" stroke="none" 
	d="
M228.356598,270.180542 
	C213.167480,269.698639 198.330826,269.550720 183.077805,269.270538 
	C182.546326,268.638794 182.511307,268.133789 182.787079,267.319305 
	C185.622406,257.785980 189.341309,248.877731 191.069061,239.400299 
	C191.503967,237.014755 192.340942,236.832855 194.379959,237.905212 
	C196.811935,239.184250 199.464630,240.043594 202.392944,241.102249 
	C211.491440,240.140610 219.575867,243.798309 228.066452,244.668335 
	C235.656952,245.446106 243.221100,245.717804 250.822739,245.573318 
	C253.705643,245.518524 256.566711,245.570801 259.757141,246.198883 
	C261.888947,245.558868 263.544189,244.754852 265.713287,244.289337 
	C266.829895,244.244354 267.567383,244.258743 268.620972,243.896637 
	C270.736633,243.086548 272.833527,243.705200 274.775085,242.237030 
	C275.528809,241.915100 275.972168,241.781876 276.759491,241.603333 
	C278.208618,241.478500 279.333466,241.566223 280.760559,241.196182 
	C281.537872,240.982529 281.987427,240.861847 282.789825,240.660660 
	C284.382019,240.470230 285.509033,239.662231 287.209167,240.039154 
	C290.689392,239.740662 293.484894,238.624268 296.147156,237.029907 
	C301.132263,234.044464 303.187561,234.718628 305.135956,240.017914 
	C307.538330,246.551819 309.355103,253.286270 311.868408,260.261200 
	C314.223816,270.042511 313.935547,270.506134 304.673065,271.970673 
	C299.383118,272.807098 294.075592,272.593994 288.275665,272.086975 
	C270.525574,272.960358 253.256775,272.329681 235.993790,272.444061 
	C233.398849,272.461243 230.888611,272.095825 228.356598,270.180542 
z"/>
<path fill="#201F1E" opacity="1.000000" stroke="none" 
	d="
M228.108063,270.188965 
	C247.696289,269.125031 267.393005,269.601807 287.545288,269.732513 
	C288.612549,270.809998 289.955505,271.389099 289.896210,272.676880 
	C289.651611,277.987885 293.076538,281.220978 296.457245,284.471741 
	C304.255280,291.970001 311.568726,299.954010 319.776611,307.054047 
	C322.877563,309.736481 326.557404,311.173126 329.871460,313.332703 
	C331.699677,314.524017 332.932434,315.723389 333.595581,318.075195 
	C333.747589,320.658112 331.989136,321.916504 330.808990,323.442169 
	C328.948700,325.847015 326.928589,325.192474 324.795319,323.570923 
	C313.676117,315.119049 309.668213,315.173096 298.170105,323.961578 
	C295.907410,325.691040 294.259766,325.359558 292.917725,322.976349 
	C292.284058,321.851013 291.955566,320.156433 290.254974,320.600739 
	C288.451965,321.071838 288.777802,322.920746 288.502167,324.347778 
	C288.002167,326.936462 289.636963,330.132111 286.026825,331.982910 
	C281.903442,331.464569 282.611603,327.789001 281.018066,325.032776 
	C278.744415,331.139832 273.863647,327.384918 269.802185,328.556396 
	C269.179352,328.558075 269.005768,328.472809 268.636871,328.172913 
	C268.373199,327.777283 268.304779,327.596313 268.244995,327.125183 
	C268.337097,326.660522 268.420593,326.485962 268.750305,326.157654 
	C273.102600,324.277130 274.383484,320.974640 271.675049,317.586212 
	C268.804382,313.994873 265.527039,310.397217 260.009125,312.609375 
	C259.075928,312.983521 258.522461,312.614288 257.906006,311.924530 
	C250.840454,304.018951 245.567764,294.707306 238.094177,287.087952 
	C233.540054,282.445007 231.279434,276.192657 228.108063,270.188965 
z"/>
<path fill="#EF4106" opacity="1.000000" stroke="none" 
	d="
M268.798706,325.726074 
	C268.981995,326.177429 268.967468,326.350891 269.038696,326.770905 
	C269.327301,327.265656 269.520233,327.521271 269.808777,328.000183 
	C269.914307,328.216034 269.421631,328.151306 269.387299,328.397308 
	C269.381836,339.616028 269.406738,350.588745 269.442139,361.561462 
	C269.451630,364.513855 269.458740,367.486115 273.747681,367.175873 
	C275.197327,367.071014 275.997620,367.783783 275.839905,369.223511 
	C275.655151,370.910278 276.831451,373.057983 274.625488,374.119568 
	C273.471924,374.674744 272.085815,374.746674 270.402496,375.099579 
	C266.272278,375.177887 263.111603,374.113037 261.058777,370.278015 
	C260.277802,369.267059 260.753937,367.903564 259.195862,367.801910 
	C251.430038,374.980072 242.537735,376.605499 232.337616,374.529510 
	C230.545731,373.588074 229.149445,372.758362 227.432373,371.796478 
	C226.249100,371.752716 225.704422,371.319824 225.354675,370.210083 
	C224.062820,367.545288 222.591843,365.335052 221.916229,362.353424 
	C217.762772,356.298340 219.892426,347.821686 226.610107,342.960419 
	C231.969467,339.082123 238.300537,338.359589 244.579758,337.578339 
	C247.229507,337.248657 249.875046,336.952301 252.440765,336.214813 
	C254.485504,335.627136 256.086975,334.471771 256.301392,332.154480 
	C256.508942,329.911255 255.294281,328.369690 253.523758,327.202362 
	C247.990784,323.554474 239.752060,325.809021 236.851624,331.753906 
	C234.761993,336.036896 228.107758,338.084808 223.856689,335.753174 
	C221.095108,334.238495 221.361038,330.981995 224.886780,327.295715 
	C229.602112,317.292053 237.938217,314.662018 247.704559,314.845551 
	C256.330658,315.007690 264.359772,316.549408 268.798706,325.726074 
z"/>
<path fill="#1A1919" opacity="1.000000" stroke="none" 
	d="
M224.942963,326.897308 
	C224.332275,334.418701 224.327667,334.292358 230.395172,334.071381 
	C232.683838,333.988007 233.366791,333.057037 234.076324,331.023926 
	C237.047058,322.511444 251.678497,319.689728 257.797516,326.329346 
	C260.174438,328.908508 260.456696,332.030029 259.613617,335.214050 
	C258.797546,338.296234 256.285492,338.893066 253.409073,339.159393 
	C248.442810,339.619202 243.498840,340.352997 238.560471,341.074188 
	C226.628952,342.816620 221.361847,349.176880 221.843964,361.559326 
	C218.660614,363.690216 216.071045,362.591583 213.957336,360.186615 
	C210.921051,356.731873 206.783157,354.362671 204.393799,350.265442 
	C203.465073,348.672852 202.046768,347.500061 199.806030,347.066162 
	C195.905975,346.252106 196.548203,343.285706 196.755630,341.037720 
	C197.502335,332.945374 200.233139,325.607635 212.720413,322.450409 
	C213.299896,322.200317 213.522476,322.095215 214.057831,321.818237 
	C215.375717,321.152100 216.086334,320.130066 217.633408,320.005676 
	C222.760422,319.665253 221.595749,325.280304 224.942963,326.897308 
z"/>
<path fill="#F04106" opacity="1.000000" stroke="none" 
	d="
M216.279602,325.364014 
	C205.722794,325.176331 199.853500,330.532684 199.276260,340.679169 
	C199.173141,342.491608 199.288315,344.316467 199.392532,346.569336 
	C199.402100,354.075653 198.967957,361.168030 199.363251,368.213867 
	C199.636795,373.089508 198.062912,374.841827 193.358490,374.035248 
	C192.558975,373.898163 191.715714,374.016144 190.432800,374.011475 
	C188.664413,373.198364 188.962860,372.002625 189.366669,370.404114 
	C189.582672,353.635254 189.636719,337.282806 189.607513,320.468994 
	C189.507812,315.394714 192.921478,316.510468 195.517883,316.529449 
	C201.583298,316.573792 197.395966,321.761871 199.521225,324.206970 
	C203.141632,320.191406 206.594498,315.699890 212.676208,314.959137 
	C216.073929,314.545288 218.250961,315.147003 217.875641,319.592407 
	C217.783279,321.521851 217.600739,323.043854 217.198883,324.880737 
	C216.828384,325.266235 216.677231,325.336853 216.279602,325.364014 
z"/>
<path fill="#24201F" opacity="1.000000" stroke="none" 
	d="
M261.325562,247.348969 
	C241.378662,249.377853 222.094208,247.850967 203.030167,241.379761 
	C205.897156,238.465591 206.473343,235.648468 203.150330,232.309235 
	C219.870331,237.953278 237.299820,239.760300 255.537933,239.066498 
	C257.848724,240.036987 258.885468,241.911118 260.771667,242.895874 
	C262.177124,243.629654 262.923859,245.343201 261.325562,247.348969 
z"/>
<path fill="#F45421" opacity="1.000000" stroke="none" 
	d="
M176.002960,158.335480 
	C178.372787,155.291016 180.048935,155.368454 181.547180,158.839966 
	C182.514160,161.080521 184.022781,163.087326 185.908142,166.232208 
	C182.285446,166.232208 179.568161,166.232208 176.419632,166.312027 
	C175.166718,165.490326 172.549698,167.504044 173.021393,164.315674 
	C173.709152,163.265182 173.360458,161.989227 174.564377,161.119049 
	C175.175674,160.168961 175.532990,159.401871 176.002960,158.335480 
z"/>
<path fill="#1F1E1E" opacity="1.000000" stroke="none" 
	d="
M190.668152,234.337112 
	C190.536102,233.029175 191.093185,232.758804 191.973923,233.300735 
	C192.291550,233.496170 192.656982,234.162598 192.545914,234.409958 
	C192.093155,235.418320 191.401703,235.130310 190.668152,234.337112 
z"/>
<path fill="#3A271F" opacity="1.000000" stroke="none" 
	d="
M174.578705,160.956085 
	C174.391113,161.859909 173.963852,162.783768 173.292892,163.895737 
	C173.128937,162.902588 172.816925,161.558731 174.578705,160.956085 
z"/>
<path fill="#893A1E" opacity="1.000000" stroke="none" 
	d="
M182.857788,267.197388 
	C182.979477,267.494873 182.941071,267.974304 182.782074,268.796021 
	C182.058136,268.539276 182.428589,267.960358 182.857788,267.197388 
z"/>
<path fill="#21201F" opacity="1.000000" stroke="none" 
	d="
M168.932983,175.052063 
	C168.993942,175.170959 168.626114,175.458755 168.402008,175.525101 
	C168.288330,175.244476 168.096344,174.578659 168.932983,175.052063 
z"/>
<path fill="#EE4006" opacity="1.000000" stroke="none" 
	d="
M115.109344,351.341614 
	C107.215950,371.069305 93.753334,378.689209 72.410492,375.118164 
	C71.718155,374.966675 71.419785,374.871399 70.869720,374.904907 
	C70.231583,374.920654 69.863724,374.774628 69.281708,374.361816 
	C48.792881,363.814423 40.536865,341.101410 48.437199,317.519958 
	C48.964363,315.946442 49.591690,314.406433 50.290108,312.490540 
	C50.716709,311.984131 50.903156,311.743256 50.973167,311.171814 
	C51.922226,309.963623 51.378849,308.341583 52.817936,307.359009 
	C64.657890,293.265808 79.312843,290.359344 96.535599,295.192749 
	C97.558479,295.141937 98.068657,295.438019 98.748383,295.957306 
	C98.912109,296.200958 98.914642,296.122559 98.875435,296.121460 
	C99.423904,296.427063 100.094437,296.486237 100.914711,296.990997 
	C102.234657,298.092834 103.338493,298.947327 104.726471,299.907288 
	C105.169090,300.171387 105.327568,300.329987 105.749481,300.697601 
	C106.627029,301.643646 107.241135,302.380615 108.127136,303.225403 
	C111.076309,307.022369 113.286934,310.941162 114.553871,315.712891 
	C115.918755,316.993713 116.109032,318.140686 114.942757,319.762573 
	C113.398911,320.652435 112.181183,321.082397 110.866493,321.259918 
	C105.153046,322.031311 103.677391,321.265961 100.224808,315.475403 
	C96.942413,307.023224 92.621201,304.812256 83.999603,305.126678 
	C66.484055,305.765381 60.790764,318.210205 59.647209,330.773285 
	C59.005409,337.824158 60.189236,344.723145 62.786751,351.301056 
	C65.981689,359.391815 72.654823,363.511597 82.077950,363.494171 
	C91.590500,363.476532 97.110420,359.771912 100.653091,351.249023 
	C102.046982,347.895630 102.103134,343.438293 107.444748,342.561798 
	C110.538528,342.603333 113.277122,342.348175 116.243141,343.608093 
	C117.240410,344.622803 117.631950,345.454102 117.662857,346.879333 
	C117.454857,348.924042 117.224609,350.459045 115.109344,351.341614 
z"/>
<path fill="#EF4106" opacity="1.000000" stroke="none" 
	d="
M173.972961,362.602936 
	C167.743362,373.176758 158.277771,376.247101 146.588364,375.448853 
	C135.562500,373.231842 128.725449,366.967987 125.758560,356.121155 
	C122.782852,354.961609 122.709267,352.554230 122.601883,350.270111 
	C122.308655,344.032776 122.365494,337.810913 124.015778,331.272827 
	C124.078720,329.629364 124.540657,328.628479 125.700714,327.535858 
	C126.100174,327.030884 126.254532,326.828674 126.639954,326.329651 
	C127.223434,325.691559 127.590485,325.367035 128.260834,324.853210 
	C128.744019,324.520447 128.942245,324.397766 129.447067,324.113403 
	C131.468781,322.945099 131.091980,319.887817 134.122955,319.846741 
	C134.461197,319.854034 134.719803,319.783783 134.775787,319.662048 
	C134.407333,317.400391 136.619751,318.055420 137.703827,317.130005 
	C145.361649,315.466339 152.665695,313.598267 160.615738,315.942963 
	C161.219894,316.075958 161.406860,316.154083 161.810822,316.445007 
	C173.487961,322.613892 175.702606,333.379211 176.780334,344.802429 
	C177.041214,347.567352 175.925369,348.342194 173.409088,348.204773 
	C171.250580,348.086914 169.078598,348.216034 166.459564,348.318054 
	C164.199188,350.156006 161.964172,350.490234 159.557938,350.489471 
	C154.393524,350.487885 149.223465,350.326569 144.065704,350.557190 
	C139.095459,350.779449 137.661682,353.488556 139.964066,357.905670 
	C144.274780,366.175781 156.836365,366.463013 162.700439,358.441071 
	C163.873505,356.836334 164.318176,354.023407 167.715088,355.612274 
	C168.660141,355.883453 169.317871,355.973297 169.977020,355.985229 
	C176.533707,356.103546 176.533768,356.099945 173.972961,362.602936 
z"/>
<path fill="#141414" opacity="1.000000" stroke="none" 
	d="
M127.390472,329.932129 
	C124.468925,338.250336 124.092949,346.499725 125.559944,355.349731 
	C125.293007,355.851257 124.861176,355.778198 124.654961,355.960449 
	C118.847946,361.092468 117.156853,356.092621 114.856964,351.756897 
	C114.814575,350.413452 114.976326,349.396545 115.259964,348.095123 
	C116.867531,347.461914 117.025887,346.586426 116.046028,345.244720 
	C113.120445,345.058411 110.495918,345.006012 107.434875,344.887207 
	C100.461800,342.525543 99.414253,335.967163 96.802879,330.905884 
	C94.709656,326.848907 92.844345,322.927551 89.138794,320.131866 
	C87.667999,319.022247 86.116264,317.860168 86.311172,315.744293 
	C86.483910,313.869171 85.762466,312.656708 84.292542,311.548950 
	C82.786156,310.413727 82.700386,308.730469 83.355888,307.027496 
	C84.149384,304.966003 85.974632,304.990417 87.697166,305.031952 
	C93.625504,305.175018 97.530571,309.105927 101.946220,312.806946 
	C103.598938,319.155182 108.150391,319.423706 113.563278,318.989441 
	C116.048378,320.371124 116.369820,318.026337 117.753448,317.204102 
	C121.323158,315.197845 123.720734,315.567749 124.930412,319.628326 
	C125.521469,321.612366 127.053246,322.840302 129.633331,322.968109 
	C130.426620,323.383759 130.579468,323.858124 130.274292,324.773499 
	C130.090195,325.126221 130.063919,325.066833 130.096359,325.068359 
	C129.366730,325.429718 128.657883,325.849854 128.260803,326.985107 
	C128.214035,327.293793 128.218979,327.198578 128.266571,327.201355 
	C126.945518,327.582916 127.010780,328.572784 127.390472,329.932129 
z"/>
<path fill="#171615" opacity="1.000000" stroke="none" 
	d="
M167.946899,355.481781 
	C166.625519,356.029541 166.346146,357.119415 165.804581,358.192535 
	C162.217545,365.300568 155.797516,368.366608 148.042618,366.821289 
	C140.427444,365.303802 135.893860,359.899323 135.117279,351.829193 
	C134.833893,348.884430 135.872894,348.086548 138.669556,348.132812 
	C147.471558,348.278564 156.277008,348.216980 165.543839,348.317932 
	C165.856079,350.862854 167.469391,352.831635 167.946899,355.481781 
z"/>
<path fill="#171615" opacity="1.000000" stroke="none" 
	d="
M130.363541,324.953461 
	C130.068436,324.653259 130.046661,324.180298 130.012451,323.352448 
	C130.599503,321.047882 128.491791,316.128601 134.177719,319.650726 
	C133.186417,321.496246 131.911652,323.138489 130.363541,324.953461 
z"/>
<path fill="#171615" opacity="1.000000" stroke="none" 
	d="
M117.683464,316.873047 
	C117.633766,319.067963 117.703896,321.754395 114.174026,319.317566 
	C114.970177,318.488770 114.779175,317.561493 114.739021,316.336792 
	C115.629333,316.248901 116.498901,316.497467 117.683464,316.873047 
z"/>
<path fill="#1B1B1B" opacity="1.000000" stroke="none" 
	d="
M189.291901,370.116272 
	C189.620789,371.062622 189.712952,372.137512 189.889008,373.609528 
	C189.748718,374.216705 189.529297,374.431671 189.157425,374.819641 
	C188.015320,374.484985 187.353500,373.727112 187.071930,372.310608 
	C187.693008,371.414673 188.374084,370.829773 189.291901,370.116272 
z"/>
<path fill="#171615" opacity="1.000000" stroke="none" 
	d="
M137.779297,316.996887 
	C137.741211,318.568756 136.702576,319.089722 135.091827,319.375793 
	C134.708267,317.627594 135.311371,316.449127 137.779297,316.996887 
z"/>
<path fill="#3A271F" opacity="1.000000" stroke="none" 
	d="
M161.999069,316.515961 
	C161.727722,316.668213 161.476730,316.562256 161.153870,316.168915 
	C161.345367,316.123260 161.657837,316.248688 161.999069,316.515961 
z"/>
<path fill="#131313" opacity="1.000000" stroke="none" 
	d="
M52.953781,306.970093 
	C52.570503,308.357300 52.008537,309.445068 51.212891,310.734436 
	C50.014187,307.467834 49.067963,303.994232 48.073963,300.534332 
	C47.725811,299.322479 47.616585,298.193329 49.004002,297.645844 
	C50.147369,297.194702 51.278580,297.527283 52.263035,298.213593 
	C53.298943,298.935791 53.200310,299.934570 52.563183,300.792328 
	C51.038536,302.844940 51.397785,304.759094 52.953781,306.970093 
z"/>
<path fill="#1D1816" opacity="1.000000" stroke="none" 
	d="
M98.828384,295.987793 
	C98.377869,296.022827 97.843628,295.844666 97.122177,295.454987 
	C98.023140,293.768127 98.285927,295.105194 98.828384,295.987793 
z"/>
<path fill="#1D1816" opacity="1.000000" stroke="none" 
	d="
M100.865662,297.052124 
	C100.484245,297.055359 99.837669,296.872437 99.013664,296.404907 
	C99.424324,296.368866 100.012413,296.617401 100.865662,297.052124 
z"/>
<path fill="#271C19" opacity="1.000000" stroke="none" 
	d="
M105.872169,300.729553 
	C105.674400,300.874939 105.403999,300.722473 105.106155,300.231018 
	C105.283813,300.148651 105.524086,300.328552 105.872169,300.729553 
z"/>
<path fill="#FD5722" opacity="1.000000" stroke="none" 
	d="
M213.535995,48.897728 
	C230.353378,48.876221 246.710953,48.919128 263.533081,48.897095 
	C272.436157,48.887646 280.876007,49.049660 289.312469,48.943111 
	C292.429749,48.903744 293.478729,49.664589 292.603180,52.918633 
	C291.712250,56.229820 291.372711,59.689358 290.777283,63.512062 
	C291.043793,64.810219 291.322571,65.680115 290.377991,66.743141 
	C286.563171,82.444839 282.948364,97.889450 288.984863,113.570801 
	C289.572632,115.097649 290.193573,116.626984 290.968567,118.063759 
	C293.625031,122.988480 293.653809,122.971962 287.878510,122.997513 
	C286.221039,123.004845 284.563599,123.019676 282.453644,123.095200 
	C280.325653,125.103966 278.052155,125.391159 275.693298,125.421967 
	C262.494629,125.594398 249.295746,125.592598 236.104324,125.098122 
	C233.331482,124.994186 230.629272,124.125549 227.436798,123.417221 
	C219.347183,123.105331 211.703140,123.078712 204.060165,122.974579 
	C202.596786,122.954643 200.036407,123.496925 201.738495,120.528328 
	C211.308716,103.837021 208.179703,86.514381 204.461639,69.124001 
	C203.283844,63.615086 202.451233,58.032703 201.293640,52.519001 
	C200.760773,49.980839 201.185181,48.767910 204.103073,48.953999 
	C207.082169,49.143990 210.084213,48.974350 213.535995,48.897728 
z"/>
<path fill="#292423" opacity="1.000000" stroke="none" 
	d="
M227.190170,123.425751 
	C245.017853,123.115211 263.044861,123.071510 281.536499,123.093575 
	C283.335632,125.901062 287.394501,128.533493 282.185394,131.804245 
	C286.342590,135.105850 289.833527,138.677155 290.008667,144.717468 
	C287.936249,150.169388 283.980408,146.665741 280.625183,147.295197 
	C278.612671,147.838547 277.364594,147.165695 276.383148,145.910538 
	C273.919922,142.760422 272.043121,143.922684 270.314819,146.668289 
	C267.773224,150.705826 265.397614,154.843857 262.848999,158.878250 
	C261.232483,161.437119 259.465912,163.824783 257.034546,166.048111 
	C255.540039,167.749374 254.101318,167.576859 252.611084,166.406540 
	C251.722519,165.708710 250.709915,164.503479 249.828552,164.567352 
	C242.977463,165.063995 243.405014,159.603958 242.143494,155.104187 
	C247.905701,155.647110 250.573654,152.048416 252.914780,147.627762 
	C254.301254,145.009705 256.028412,142.552216 257.521606,139.979111 
	C260.027313,135.661331 259.374695,134.585022 254.230942,134.507568 
	C248.605652,134.422836 242.977142,134.571533 237.352951,134.434143 
	C235.450470,134.387680 233.272903,134.815903 232.024200,132.284027 
	C234.672058,126.834778 230.356674,125.640648 227.190170,123.425751 
z"/>
<path fill="#252424" opacity="1.000000" stroke="none" 
	d="
M279.526001,146.566223 
	C281.906525,142.836914 285.554932,146.466965 288.220337,144.284958 
	C288.733246,143.951126 288.973541,143.835739 289.612244,143.686234 
	C290.540833,143.733551 291.021057,143.933777 291.702789,144.547867 
	C294.274963,148.383118 296.694580,151.869217 298.373230,156.183502 
	C298.483978,157.533829 298.379639,158.579971 299.667419,159.423706 
	C300.018768,159.827225 300.147797,159.995407 300.449554,160.423676 
	C300.976501,161.177811 301.369476,161.636597 302.075317,162.201965 
	C302.470276,162.490891 302.632263,162.600388 303.032562,162.879776 
	C303.945465,163.488876 304.730621,163.559998 305.745117,163.858429 
	C306.508301,164.272018 307.016632,164.543427 308.160248,164.856598 
	C309.269165,164.745743 309.743317,164.594894 310.578888,164.305969 
	C312.804169,163.885590 314.720459,163.426331 315.932251,166.003632 
	C316.310303,169.178452 319.144684,168.090805 320.429871,169.305573 
	C321.866272,170.663284 322.582397,172.470215 322.954895,174.784271 
	C309.654724,175.229889 296.306335,175.309662 282.502869,175.281464 
	C278.311768,172.642700 280.265808,169.209091 280.747925,165.629517 
	C282.351074,163.249100 284.642090,163.962311 286.720093,163.349121 
	C287.174286,162.604446 286.621429,162.281479 286.174377,161.554535 
	C284.934418,159.885010 284.070038,158.403671 283.126190,156.547272 
	C282.487366,155.457718 282.132660,154.619949 281.283386,153.642502 
	C280.006348,151.286499 277.655701,149.603271 279.526001,146.566223 
z"/>
<path fill="#F65522" opacity="1.000000" stroke="none" 
	d="
M296.243683,157.208313 
	C294.223480,153.408249 292.161224,149.937286 289.858826,146.194702 
	C289.618622,145.923080 289.513275,145.517059 289.325134,145.424377 
	C289.059113,145.105820 288.981232,144.879959 288.698120,144.360306 
	C286.358551,140.302902 284.224182,136.539291 282.061768,132.426270 
	C285.000519,132.098022 287.987854,132.350693 290.929535,132.089462 
	C296.143982,131.626373 300.722900,132.166962 303.317505,137.938873 
	C306.680542,139.505875 309.164978,141.376221 309.439484,145.515549 
	C309.672699,146.407776 309.628906,146.902466 309.058746,147.579620 
	C308.734039,147.780350 308.895782,147.943146 308.825592,147.852493 
	C308.698792,148.570465 308.275848,149.183594 307.480927,149.890732 
	C305.493073,152.746628 303.734558,155.432404 301.940186,158.461334 
	C301.439331,160.082932 302.014587,162.054230 299.421204,161.855988 
	C299.136200,161.607010 299.071686,161.253448 298.943970,161.127045 
	C297.600159,160.106354 296.010437,159.494156 296.243683,157.208313 
z"/>
<path fill="#EF5421" opacity="1.000000" stroke="none" 
	d="
M308.388184,166.205490 
	C308.355896,165.882507 308.272400,165.422668 308.172363,165.211517 
	C308.380829,164.531128 308.689301,164.061890 309.087860,163.326050 
	C309.003723,162.382278 309.192993,161.825180 310.017456,161.245529 
	C310.303467,161.107666 310.701385,161.000595 310.847626,160.855469 
	C311.322754,160.378403 311.526917,159.982224 311.844330,159.275085 
	C313.384308,158.282028 313.363434,154.905945 315.323761,156.283737 
	C318.116638,158.246689 319.956726,161.627274 320.642151,164.874664 
	C321.129333,167.182770 318.127869,165.693787 316.401489,166.327805 
	C313.955841,166.339096 311.915649,166.273880 309.437561,166.221863 
	C308.806580,166.332855 308.613525,166.430664 308.388184,166.205490 
z"/>
<path fill="#252424" opacity="1.000000" stroke="none" 
	d="
M309.375336,146.164703 
	C307.370544,143.597549 305.589233,141.203156 303.696320,138.474579 
	C310.681152,137.345917 312.566132,139.372116 310.103882,145.599976 
	C309.861176,146.067322 309.729980,146.202393 309.375336,146.164703 
z"/>
<path fill="#292423" opacity="1.000000" stroke="none" 
	d="
M299.136292,161.977478 
	C300.426758,161.254593 300.774994,160.053574 301.650024,158.951233 
	C303.549866,160.018951 305.052551,161.352554 305.860962,163.690918 
	C305.203827,164.283447 304.407654,164.566269 303.303619,164.925232 
	C302.603577,165.439041 302.166260,165.809769 301.288513,165.976715 
	C299.614105,165.169983 299.120636,163.888947 299.136292,161.977478 
z"/>
<path fill="#292929" opacity="1.000000" stroke="none" 
	d="
M290.445740,67.059570 
	C290.230377,66.153275 290.300720,65.304344 290.566925,64.197800 
	C291.938477,64.435272 293.579803,64.696228 293.215698,66.428024 
	C292.951263,67.685951 291.668915,67.223434 290.445740,67.059570 
z"/>
<path fill="#242424" opacity="1.000000" stroke="none" 
	d="
M310.039673,161.130493 
	C310.110901,161.670578 309.918365,162.233490 309.451874,162.927917 
	C307.377716,161.796814 308.469757,161.441483 310.039673,161.130493 
z"/>
<path fill="#3A271F" opacity="1.000000" stroke="none" 
	d="
M309.103760,146.294815 
	C309.151855,145.991959 309.571777,145.957520 309.782104,145.944885 
	C310.268616,146.770538 310.043213,147.375107 308.955750,147.730820 
	C308.841278,147.386124 308.948486,146.991898 309.103760,146.294815 
z"/>
<path fill="#3A271F" opacity="1.000000" stroke="none" 
	d="
M307.473480,150.049622 
	C307.592896,149.394379 307.934174,148.727905 308.515442,147.911636 
	C308.756561,148.685776 308.922516,149.686432 307.473480,150.049622 
z"/>
<path fill="#3A271F" opacity="1.000000" stroke="none" 
	d="
M311.902557,159.207993 
	C311.873566,159.503128 311.664703,159.977783 311.224854,160.581390 
	C311.236816,160.269394 311.479736,159.828445 311.902557,159.207993 
z"/>
<path fill="#F75522" opacity="1.000000" stroke="none" 
	d="
M231.747559,131.989838 
	C242.723190,131.936569 253.446777,131.936569 265.480499,131.936569 
	C259.263184,142.009781 253.730667,150.980606 248.188782,159.945633 
	C247.223465,161.507187 246.403946,160.955414 245.636841,159.735123 
	C244.665833,158.190475 243.675201,156.658142 242.415466,154.914108 
	C237.901855,147.636429 233.665817,140.565125 229.190857,133.248169 
	C228.673080,131.866821 229.371902,131.617416 230.630890,131.741821 
	C231.159714,131.971039 231.327621,132.007080 231.747559,131.989838 
z"/>
<path fill="#FA5622" opacity="1.000000" stroke="none" 
	d="
M213.298126,148.276367 
	C215.739868,144.293655 217.991272,140.620026 220.504990,136.518402 
	C226.472214,146.247452 232.241196,155.653320 238.409317,165.709961 
	C226.309540,165.709961 214.880234,165.709961 202.607132,165.709961 
	C206.250305,159.768661 209.679047,154.177063 213.298126,148.276367 
z"/>
<path fill="#FA5622" opacity="1.000000" stroke="none" 
	d="
M279.587555,146.100403 
	C280.827148,148.049973 281.799500,149.779922 283.004578,151.750931 
	C284.062653,152.741943 285.378510,153.105881 285.260071,154.934296 
	C286.060516,156.693420 286.878754,158.102936 287.950012,159.754028 
	C289.858582,161.748062 292.686493,163.007721 290.444214,166.302429 
	C287.672852,166.323593 285.284241,166.280090 282.455017,166.315704 
	C275.030029,169.777832 267.942108,169.159378 260.396179,166.666870 
	C259.232269,166.343185 258.485016,166.296127 257.368530,166.321365 
	C255.400238,165.443344 256.414673,164.407715 256.975281,163.490143 
	C262.323151,154.736771 267.701538,146.002045 273.414886,136.702469 
	C275.533386,139.995056 277.426849,142.937927 279.587555,146.100403 
z"/>
<path fill="#F65522" opacity="1.000000" stroke="none" 
	d="
M190.339767,155.607819 
	C184.752228,146.483597 185.000015,146.646027 190.645370,138.034225 
	C193.604187,133.520645 196.912003,131.292114 202.378265,132.065994 
	C205.405899,132.494629 208.544037,132.142868 212.563629,132.142868 
	C206.324112,142.342026 200.561218,151.762100 194.632782,161.452759 
	C192.488159,159.973770 191.823349,157.692184 190.339767,155.607819 
z"/>
<path fill="#292423" opacity="1.000000" stroke="none" 
	d="
M259.947815,166.750488 
	C267.015869,166.335770 274.052185,166.281296 281.551483,166.310837 
	C282.644836,169.059769 282.312042,171.730499 282.055237,174.787109 
	C276.296417,175.252808 270.545044,175.332092 264.402039,175.292709 
	C261.136993,170.956635 256.141022,174.477310 252.255493,171.915649 
	C255.010117,170.230286 259.753937,171.960480 259.947815,166.750488 
z"/>
<path fill="#292423" opacity="1.000000" stroke="none" 
	d="
M230.755798,131.808578 
	C230.414917,132.116364 229.838043,132.297729 229.106537,132.740814 
	C228.428848,132.681183 227.766022,132.166199 228.436035,131.693512 
	C228.901581,131.365082 229.809509,131.663681 230.755798,131.808578 
z"/>
<path fill="#292423" opacity="1.000000" stroke="none" 
	d="
M248.155243,167.027924 
	C248.150925,167.094086 247.839462,167.012115 247.839462,167.012115 
	C247.839462,167.012115 248.159561,166.961761 248.155243,167.027924 
z"/>
<path fill="#131313" opacity="1.000000" stroke="none" 
	d="
M69.290161,374.336121 
	C69.436447,374.281555 69.846405,374.364624 70.448425,374.705505 
	C70.278275,374.800110 69.916054,374.636902 69.290161,374.336121 
z"/>
<path fill="#232222" opacity="1.000000" stroke="none" 
	d="
M309.479218,260.151855 
	C307.053528,253.822906 304.863770,247.412109 302.962463,240.916855 
	C302.112488,238.012985 300.998993,237.229980 298.106323,238.625824 
	C294.840118,240.201920 291.333008,241.278824 287.537994,242.605072 
	C285.616211,241.408737 283.971649,240.502640 281.985779,240.122665 
	C279.939240,239.731079 278.922943,238.443085 279.709229,235.920502 
	C283.499573,234.376160 287.163361,233.156952 291.183472,231.904968 
	C292.195068,231.729401 292.829285,231.500565 293.731689,231.157623 
	C302.987244,226.661514 311.496979,221.671112 318.484985,213.905060 
	C318.094604,218.011856 319.840668,220.778183 322.966766,223.972824 
	C327.872345,228.986023 331.008148,235.545731 336.418793,240.406342 
	C343.541901,246.805252 350.375580,253.589828 356.785156,260.702911 
	C364.213257,268.946381 373.160309,275.182312 382.069305,281.533569 
	C389.111816,286.554199 395.838104,291.953339 401.957794,298.069092 
	C405.093109,301.202362 408.944092,303.085754 412.943359,304.689331 
	C420.444885,307.697205 425.742828,313.958099 432.903320,318.081604 
	C433.573120,318.665955 433.955292,319.031708 434.466858,319.789246 
	C434.720734,320.663940 434.693665,321.170929 434.380737,322.005249 
	C431.420105,326.653320 429.030396,331.247284 425.521973,335.082092 
	C422.448547,338.441437 420.719086,338.442902 417.976959,334.826935 
	C415.161499,331.114258 412.744873,327.120697 410.114227,323.276978 
	C409.270721,322.044464 408.464417,320.746887 407.181000,319.911499 
	C406.034393,319.165253 404.716187,318.520355 403.563232,319.725494 
	C402.545380,320.789429 403.303802,321.943726 403.959473,322.896942 
	C407.542236,328.105591 410.914307,333.456207 414.581970,338.607635 
	C417.989594,343.393860 418.245483,345.061981 414.761322,349.787415 
	C412.124573,353.363525 410.989777,358.473175 405.408386,359.468567 
	C401.969116,356.290466 402.449463,351.099030 398.290070,348.584808 
	C394.908173,346.540588 391.601135,344.434296 387.520203,343.033813 
	C384.380768,342.525360 384.743530,340.208832 384.620636,338.362457 
	C384.347687,334.261658 384.513031,330.145020 384.489197,326.035248 
	C384.465302,321.915802 382.919373,319.035004 378.202393,318.172699 
	C372.550446,318.579559 368.428345,315.943237 364.902832,312.636108 
	C359.336975,307.415039 353.624786,302.350098 348.255676,296.897339 
	C344.497314,293.080414 339.816711,290.240051 336.123108,286.171661 
	C331.939178,281.563171 327.408691,277.219147 322.895599,272.930481 
	C318.455231,268.710907 314.580017,263.928406 309.479218,260.151855 
z"/>
<path fill="#EE4007" opacity="1.000000" stroke="none" 
	d="
M405.024841,359.597839 
	C407.786957,355.497498 410.305878,351.593201 413.186279,347.976807 
	C415.302155,345.320343 415.243866,343.310486 413.196930,340.549835 
	C408.259277,333.890411 403.742096,326.920898 398.947052,320.153198 
	C397.202881,317.691528 397.098419,316.649780 400.633514,316.371765 
	C405.970795,315.951904 410.079163,316.791962 412.739746,322.286377 
	C415.018768,326.992767 418.377441,331.176361 421.500397,335.961700 
	C425.592010,331.510193 428.614380,326.560120 431.937805,321.437622 
	C432.170624,320.930573 432.307770,320.752533 432.639709,320.299347 
	C432.962250,319.657043 433.090027,319.289886 433.189514,318.627014 
	C435.627167,316.124451 438.655304,316.402924 441.608704,316.487091 
	C443.049377,316.528107 445.015991,315.715942 445.808868,317.069946 
	C446.806641,318.773895 444.465179,319.789429 443.890320,321.610107 
	C438.977936,328.656036 434.233551,335.436371 429.304993,342.080109 
	C427.887482,343.990906 428.477295,345.250336 429.620911,346.882294 
	C432.662537,351.222778 435.561005,355.663513 438.778748,360.241211 
	C441.797516,364.675751 444.553986,368.933502 447.316132,373.199982 
	C438.660400,375.551788 436.222351,374.685577 431.453308,367.529633 
	C428.414459,362.969910 425.407471,358.388947 422.368195,353.829529 
	C422.194855,353.569458 421.858215,353.418274 421.114532,352.842407 
	C417.050476,359.289307 413.013123,365.693848 408.967285,372.660370 
	C408.958832,373.222321 408.785980,373.672852 408.352814,373.794678 
	C406.872192,373.958740 405.824738,374.000946 404.389069,374.105560 
	C402.863281,375.103088 401.505554,374.990082 399.767700,374.939240 
	C399.111572,374.826141 398.855713,374.747040 398.282959,374.421051 
	C397.494415,373.454651 394.065643,375.203949 396.360443,372.119995 
	C399.327271,368.132874 402.087494,363.992004 405.024841,359.597839 
z"/>
<path fill="#232222" opacity="1.000000" stroke="none" 
	d="
M318.999237,213.661530 
	C319.242340,212.882614 319.795502,211.957489 320.608826,210.839493 
	C320.759430,211.825943 320.456390,212.900101 318.999237,213.661530 
z"/>
<path fill="#232222" opacity="1.000000" stroke="none" 
	d="
M322.078766,209.845734 
	C321.969116,209.372665 322.067017,208.795792 322.381226,208.019424 
	C323.061676,208.552567 323.153778,209.224945 322.078766,209.845734 
z"/>
<path fill="#262626" opacity="1.000000" stroke="none" 
	d="
M327.317871,193.714172 
	C327.241272,193.541901 327.292084,193.107895 327.649109,192.540771 
	C327.785339,192.755890 327.615326,193.104172 327.317871,193.714172 
z"/>
<path fill="#F04106" opacity="1.000000" stroke="none" 
	d="
M285.743439,332.475281 
	C285.737885,328.192200 286.043030,324.356598 285.804077,320.555176 
	C285.587189,317.104340 287.004425,316.273376 290.155212,316.400818 
	C293.057861,316.518219 295.622375,316.438690 294.979736,320.523071 
	C294.860291,321.282257 295.083710,322.095428 295.214478,323.677094 
	C300.303131,317.924438 305.790588,314.353607 313.226929,314.830597 
	C317.206940,315.085876 321.057953,315.957794 323.436676,319.112335 
	C326.801758,323.575043 329.264008,322.873657 332.022247,318.377228 
	C332.064117,315.794891 333.688782,314.981079 335.394257,314.186768 
	C349.620758,307.560730 365.262390,317.127991 365.383301,332.808868 
	C365.435852,339.619965 366.818024,346.637421 363.404785,353.605194 
	C363.096832,359.312775 362.836487,364.634552 363.055389,369.936554 
	C363.191437,373.232178 362.068726,374.508698 358.434113,374.106262 
	C357.248108,374.129272 356.496399,374.088623 355.372253,374.110962 
	C350.914154,375.004395 350.810394,371.970093 350.650543,369.408081 
	C350.309784,363.945953 350.554749,358.466034 350.506439,352.993774 
	C350.456665,347.355896 350.732025,341.709869 350.361633,336.081787 
	C350.017456,330.852386 347.791870,327.913940 343.959045,327.137299 
	C339.825104,326.299652 335.771759,328.636139 333.627289,333.178589 
	C331.277802,338.155426 331.588898,343.501434 331.444489,348.808380 
	C331.356842,352.028900 332.351685,355.506226 329.572144,358.669312 
	C329.258942,362.132355 328.882965,365.292450 329.199890,368.381439 
	C329.660126,372.867371 328.141815,374.809937 323.550781,374.021393 
	C322.423431,373.827789 321.255066,373.872955 319.682648,373.670532 
	C319.259735,373.532776 319.385559,373.261169 319.313904,373.129761 
	C317.177002,370.820526 317.621185,368.064911 317.519928,365.443329 
	C317.129578,355.338013 318.305969,345.194153 316.682404,335.114624 
	C316.071594,331.322388 315.207886,327.839020 310.712463,326.999878 
	C306.880219,326.284607 302.680206,328.517944 300.516449,332.667450 
	C298.078979,337.341827 297.630707,342.476532 297.472778,347.660126 
	C297.383545,350.588867 298.048248,353.676208 295.885742,356.664917 
	C295.621643,361.494232 295.196075,365.974426 295.479309,370.409332 
	C295.739532,374.483612 293.314270,374.019196 290.780975,374.031708 
	C288.078796,374.045135 285.681335,374.472443 285.767365,370.199646 
	C286.017456,357.783691 285.831848,345.358948 285.743439,332.475281 
z"/>
<path fill="#1F1D1C" opacity="1.000000" stroke="none" 
	d="
M296.048340,357.089966 
	C295.148865,350.416473 295.044556,343.791748 295.907410,337.199097 
	C296.564728,332.177002 298.958740,328.131714 303.405426,325.476257 
	C311.560822,320.605957 318.914459,324.367340 319.435394,333.907135 
	C319.778656,340.193298 319.593231,346.509857 319.592865,352.812805 
	C319.592499,359.280701 319.529236,365.748566 319.367920,372.607422 
	C315.777496,373.161346 313.700592,371.201752 311.363190,368.825470 
	C306.919495,364.307892 301.819611,360.450653 296.048340,357.089966 
z"/>
<path fill="#1A1919" opacity="1.000000" stroke="none" 
	d="
M225.199509,370.073914 
	C225.875229,370.288239 226.384277,370.742462 227.002472,371.430481 
	C226.725891,372.377655 226.283737,373.274963 225.340927,372.796417 
	C224.225998,372.230530 224.552475,371.220306 225.199509,370.073914 
z"/>
<path fill="#271C19" opacity="1.000000" stroke="none" 
	d="
M259.149048,368.176331 
	C261.089539,366.389740 260.442688,368.638489 260.877014,369.682800 
	C260.357300,369.449677 259.849731,368.912384 259.149048,368.176331 
z"/>
<path fill="#1F1E1E" opacity="1.000000" stroke="none" 
	d="
M411.915405,375.662537 
	C410.593018,375.919495 409.221039,375.753601 408.111023,374.199707 
	C407.919647,373.916534 407.953766,373.980133 407.921753,373.996826 
	C408.194427,373.800751 408.471558,373.556427 408.855957,373.039673 
	C408.987091,372.794678 408.883026,372.867126 408.846375,372.815247 
	C410.223694,373.137360 411.423096,373.764374 411.915405,375.662537 
z"/>
<path fill="#EB4007" opacity="1.000000" stroke="none" 
	d="
M377.275208,316.348114 
	C386.989899,316.770050 386.985352,316.770050 386.991272,326.093170 
	C386.994659,331.419800 387.015747,336.746460 387.095520,342.537689 
	C387.117981,352.025238 387.073730,361.048218 387.094910,370.535828 
	C387.453461,371.409973 387.565857,371.867432 387.340637,372.682983 
	C386.023468,374.687256 384.253418,373.742279 382.393250,374.116333 
	C378.244507,374.590118 376.826691,373.069519 377.117249,369.184875 
	C377.446075,364.788818 377.152954,360.346222 377.047272,355.461884 
	C375.019287,352.834625 374.614105,350.179260 374.574005,347.417694 
	C374.454315,339.175415 374.452118,330.932495 374.580292,322.690765 
	C374.616028,320.395477 374.608185,318.012054 377.275208,316.348114 
z"/>
<path fill="#202020" opacity="1.000000" stroke="none" 
	d="
M398.782776,374.462097 
	C400.391266,374.134705 401.782104,374.091492 403.586884,374.108154 
	C402.992432,375.751068 401.406952,375.977509 399.364868,375.992737 
	C398.617004,375.665192 398.482697,375.243439 398.782776,374.462097 
z"/>
<path fill="#1F1E1E" opacity="1.000000" stroke="none" 
	d="
M398.742035,374.130188 
	C399.000580,374.582794 399.000702,374.987732 399.001038,375.696350 
	C398.649841,376.271942 398.124176,376.850616 397.975281,376.765991 
	C397.000732,376.212463 397.583160,375.393921 397.867432,374.413452 
	C398.138611,374.143616 398.311127,374.113037 398.742035,374.130188 
z"/>
<path fill="#212020" opacity="1.000000" stroke="none" 
	d="
M387.332397,372.895874 
	C387.117615,372.554230 387.076935,372.108612 387.098328,371.331726 
	C387.936279,371.469971 388.412231,371.997406 387.332397,372.895874 
z"/>
<path fill="#1F1E1E" opacity="1.000000" stroke="none" 
	d="
M329.625916,359.124878 
	C329.272980,352.026276 329.003021,345.041077 329.241669,338.073242 
	C329.413086,333.068542 331.500031,328.685791 335.748566,325.730621 
	C343.517700,320.326660 352.645477,324.529938 352.974152,333.947662 
	C353.379822,345.571228 353.125183,357.216949 353.261780,368.851837 
	C353.281555,370.535614 352.355988,372.513947 354.603882,374.035248 
	C353.123047,376.353912 351.438934,374.978180 349.838715,373.816223 
	C343.183594,368.983826 336.561066,364.106537 329.625916,359.124878 
z"/>
<path fill="#212020" opacity="1.000000" stroke="none" 
	d="
M377.358734,316.191101 
	C376.488556,325.692444 377.516571,335.161285 377.209290,344.603149 
	C377.106598,347.758148 377.154175,350.918030 377.048706,354.537781 
	C372.722992,353.088562 368.569794,350.290222 363.477722,353.845886 
	C363.096252,348.506561 363.005310,343.013885 362.985199,337.520966 
	C362.911713,317.460480 351.680573,310.114502 332.527588,317.960388 
	C314.673981,309.755615 303.598450,294.060913 289.997559,281.270233 
	C286.861359,278.320862 286.816376,274.541382 287.957581,270.246033 
	C293.905914,269.726898 299.808899,269.589325 305.712616,269.495697 
	C311.678436,269.401093 311.679077,269.420105 310.018158,263.930725 
	C309.733032,262.988373 309.444031,262.047241 309.141296,260.686829 
	C313.143433,259.822418 316.026672,261.170654 318.314453,264.769501 
	C320.587555,268.345123 324.246399,271.079895 327.327271,273.737915 
	C334.380859,279.823334 339.949249,287.377380 347.766541,292.781555 
	C353.950684,297.056671 358.757141,303.320679 364.193024,308.683563 
	C367.801880,312.243927 371.817230,315.128235 377.358734,316.191101 
z"/>
<path fill="#202020" opacity="1.000000" stroke="none" 
	d="
M279.423157,235.640045 
	C281.268829,237.652832 283.070099,238.154648 285.357758,237.016495 
	C286.468109,236.464096 287.765472,235.102875 288.876129,236.208618 
	C290.308929,237.634995 288.305908,238.767136 287.898468,240.056305 
	C287.702362,240.676865 287.480927,241.289398 287.208130,242.271423 
	C286.149689,242.864944 285.154114,243.092606 283.883667,243.179108 
	C283.198700,243.090668 282.830261,243.243820 282.262085,243.683685 
	C280.913879,244.224304 279.807190,244.578659 278.350647,244.918137 
	C277.418610,244.398468 276.818054,244.324463 276.110474,245.155457 
	C273.993164,245.838486 271.958313,246.192154 269.527893,246.544586 
	C268.594208,246.218491 268.044220,246.124420 267.235168,246.635788 
	C265.250458,247.108780 263.502747,247.403793 261.378998,247.665359 
	C260.370880,244.421402 256.669159,243.094803 256.096680,239.459915 
	C257.069824,239.033569 258.136627,238.937546 259.601593,238.902496 
	C260.869781,239.764008 261.645569,239.247391 262.718201,238.624084 
	C268.344116,237.533752 273.677338,236.609238 279.423157,235.640045 
z"/>
<path fill="#24201F" opacity="1.000000" stroke="none" 
	d="
M262.702850,238.413483 
	C262.348907,239.564407 261.836182,241.118118 260.113831,239.174866 
	C260.798126,238.765182 261.596497,238.566940 262.702850,238.413483 
z"/>
<path fill="#292423" opacity="1.000000" stroke="none" 
	d="
M293.631866,230.935455 
	C293.375061,231.192215 292.780151,231.462936 291.862488,231.802948 
	C292.124420,231.564621 292.709076,231.257019 293.631866,230.935455 
z"/>
<path fill="#24201F" opacity="1.000000" stroke="none" 
	d="
M267.270050,246.860275 
	C267.316132,245.678116 267.559601,244.341644 269.039948,246.317001 
	C268.602173,246.664474 268.072052,246.785614 267.270050,246.860275 
z"/>
<path fill="#24201F" opacity="1.000000" stroke="none" 
	d="
M276.372070,245.447479 
	C276.350800,244.706696 276.499023,243.605209 277.877197,244.728363 
	C277.572571,245.072220 277.144318,245.241165 276.372070,245.447479 
z"/>
<path fill="#24201F" opacity="1.000000" stroke="none" 
	d="
M282.354248,243.872375 
	C282.374664,243.684128 282.728729,243.498306 283.345825,243.175217 
	C283.301880,243.316910 282.994873,243.595856 282.354248,243.872375 
z"/>
<path fill="#1B1B1B" opacity="1.000000" stroke="none" 
	d="
M283.158203,319.026672 
	C283.153961,319.093567 282.838989,319.010773 282.838989,319.010773 
	C282.838989,319.010773 283.162476,318.959747 283.158203,319.026672 
z"/>
<path fill="#1B1B1B" opacity="1.000000" stroke="none" 
	d="
M269.757172,328.034851 
	C269.642303,328.011169 269.370300,327.806305 269.111389,327.309448 
	C269.268829,327.304260 269.427338,327.583008 269.757172,328.034851 
z"/>
<path fill="#1F1B19" opacity="1.000000" stroke="none" 
	d="
M243.410370,348.263885 
	C249.045120,347.270050 254.269379,346.358246 259.493713,345.446747 
	C261.288269,359.955811 254.455612,368.112427 241.176620,367.313385 
	C235.398163,366.965668 232.423660,364.467224 231.893982,359.516449 
	C231.312668,354.082916 233.578537,350.799988 239.094345,349.189545 
	C240.369598,348.817200 241.696671,348.622437 243.410370,348.263885 
z"/>
<path fill="#3A271F" opacity="1.000000" stroke="none" 
	d="
M216.151245,325.379211 
	C216.033157,325.320496 216.494751,325.167236 216.737152,325.181427 
	C216.787766,325.405304 216.551025,325.486053 216.151245,325.379211 
z"/>
<path fill="#131313" opacity="1.000000" stroke="none" 
	d="
M102.148033,312.661438 
	C99.908577,312.590271 97.850159,311.627838 95.975296,310.161011 
	C94.811317,309.250336 93.560638,308.300079 92.190269,307.838623 
	C90.094818,307.133026 87.012955,305.760162 86.169746,308.563934 
	C85.500366,310.789764 88.748421,310.889923 90.556000,311.450287 
	C91.555130,311.760010 93.238571,311.212891 93.099319,313.005005 
	C92.923996,315.261261 90.797661,315.475311 88.001999,316.044647 
	C98.970856,323.049927 100.480995,335.112518 106.880203,344.501831 
	C104.484917,345.284760 104.946426,347.628357 104.430595,349.191284 
	C100.580223,360.857788 93.361038,366.573547 82.344330,366.469971 
	C69.884171,366.352844 62.243145,360.598083 58.852268,348.315338 
	C56.097603,338.337128 55.814320,328.260345 59.631393,318.461639 
	C63.170197,309.377319 69.774452,303.715363 79.663994,302.775757 
	C88.731216,301.914246 96.929520,303.662323 102.148033,312.661438 
z"/>
<path fill="#131313" opacity="1.000000" stroke="none" 
	d="
M115.724625,345.452148 
	C116.968315,344.792999 118.637932,344.041046 119.035873,345.746704 
	C119.557861,347.984100 117.464149,347.606201 115.753326,347.816284 
	C115.489326,347.138245 115.596802,346.465851 115.724625,345.452148 
z"/>
<path fill="#1D1816" opacity="1.000000" stroke="none" 
	d="
M166.655350,339.131866 
	C166.455017,340.239594 165.996780,340.724609 165.268585,340.727814 
	C155.951340,340.769165 146.633896,340.815948 137.316696,340.792389 
	C134.221603,340.784546 135.034225,338.566437 135.394150,336.859985 
	C137.033661,329.086731 143.745422,323.546692 151.336136,323.606995 
	C159.605988,323.672699 164.350067,327.852966 166.266296,336.766907 
	C166.406128,337.417297 166.524216,338.072388 166.655350,339.131866 
z"/>
<path fill="#171717" opacity="1.000000" stroke="none" 
	d="
M127.693047,329.956390 
	C126.731544,329.199066 126.344749,328.218018 128.045822,327.307983 
	C128.168900,328.034485 128.023636,328.864838 127.693047,329.956390 
z"/>
<path fill="#171717" opacity="1.000000" stroke="none" 
	d="
M128.500854,327.175507 
	C128.671158,326.646606 129.128265,325.999451 129.857086,325.211090 
	C129.681747,325.732361 129.234711,326.394775 128.500854,327.175507 
z"/>
<path fill="#131313" opacity="1.000000" stroke="none" 
	d="
M98.843079,318.973297 
	C98.847351,318.906769 99.160545,318.989288 99.160545,318.989288 
	C99.160545,318.989288 98.838799,319.039825 98.843079,318.973297 
z"/>
<path fill="#171717" opacity="1.000000" stroke="none" 
	d="
M125.504501,324.497711 
	C125.486847,324.502808 125.522156,324.492615 125.504501,324.497711 
z"/>
<path fill="#21201F" opacity="1.000000" stroke="none" 
	d="
M240.622742,127.636154 
	C240.695969,127.909286 240.644714,128.144318 240.593445,128.379349 
	C240.455917,128.336258 240.318405,128.293167 240.180878,128.250076 
	C240.286682,128.032730 240.392471,127.815392 240.622742,127.636154 
z"/>
<path fill="#292423" opacity="1.000000" stroke="none" 
	d="
M290.330017,166.459167 
	C291.823486,163.775238 288.767914,162.597519 288.291229,160.316254 
	C290.723114,160.311493 291.776794,162.263840 292.683807,164.222168 
	C293.670166,166.351852 292.600922,166.941498 290.330017,166.459167 
z"/>
<path fill="#292423" opacity="1.000000" stroke="none" 
	d="
M296.044434,157.087921 
	C297.089203,158.051956 297.892700,159.224701 298.756226,160.699036 
	C297.243683,160.908112 295.313049,162.307953 294.185699,160.556534 
	C293.271637,159.136505 294.967163,158.261078 296.044434,157.087921 
z"/>
<path fill="#292423" opacity="1.000000" stroke="none" 
	d="
M285.549408,155.130829 
	C284.614655,154.368561 283.987091,153.453201 283.298401,152.264893 
	C284.576416,151.827789 286.134216,150.772308 287.135040,152.359055 
	C287.895630,153.564865 286.840454,154.365768 285.549408,155.130829 
z"/>
<path fill="#262626" opacity="1.000000" stroke="none" 
	d="
M301.203125,166.060883 
	C301.488159,165.726517 301.977661,165.456879 302.731445,165.094299 
	C302.693420,165.696838 302.324463,166.298187 301.203125,166.060883 
z"/>
<path fill="#512F25" opacity="1.000000" stroke="none" 
	d="
M308.261322,165.965576 
	C308.355896,165.882507 308.734222,165.955887 308.866913,166.095474 
	C308.663666,166.433517 308.284393,166.825562 308.261322,165.965576 
z"/>
<path fill="#292423" opacity="1.000000" stroke="none" 
	d="
M289.209229,145.434998 
	C289.348938,145.341873 289.500031,145.443085 289.604431,145.779205 
	C289.497223,145.802719 289.384827,145.674469 289.209229,145.434998 
z"/>
<path fill="#EE4007" opacity="1.000000" stroke="none" 
	d="
M378.446014,305.812622 
	C376.411285,302.884613 377.451630,299.855225 377.289917,296.931335 
	C377.205231,295.399719 378.302277,294.887848 379.597229,295.029144 
	C381.994812,295.290741 385.492004,293.692169 386.534454,296.006836 
	C387.656738,298.498779 387.757233,302.315399 386.600708,304.742737 
	C385.259491,307.557678 381.530151,305.533569 378.446014,305.812622 
z"/>
<path fill="#202020" opacity="1.000000" stroke="none" 
	d="
M292.842194,235.973419 
	C292.846466,235.906738 293.160309,235.989380 293.160309,235.989380 
	C293.160309,235.989380 292.837921,236.040100 292.842194,235.973419 
z"/>
<path fill="#292423" opacity="1.000000" stroke="none" 
	d="
M432.686401,320.193909 
	C432.892761,320.387390 432.772644,320.676453 432.253784,321.000000 
	C432.179321,320.845093 432.347626,320.596771 432.686401,320.193909 
z"/>
<path fill="#202020" opacity="1.000000" stroke="none" 
	d="
M408.714081,372.897583 
	C408.748444,373.069885 408.509796,373.345123 408.080444,373.816956 
	C408.073517,373.675842 408.257294,373.338165 408.714081,372.897583 
z"/>
<path fill="#232222" opacity="1.000000" stroke="none" 
	d="
M277.131439,238.912323 
	C277.174408,238.962341 276.891968,239.124146 276.891968,239.124146 
	C276.891968,239.124146 277.088470,238.862305 277.131439,238.912323 
z"/>
</svg>